<svg width="24" height="18" viewBox="0 0 24 18" fill="none" xmlns="http://www.w3.org/2000/svg">
<path d="M18.1228 11.1898C16.0632 12.3123 13.681 13.6105 12 15.9706C10.319 13.6105 7.93678 12.3123 5.87719 11.1898C5.59777 11.0375 5.32429 10.8885 5.0593 10.7405C3.78009 10.0259 2.70955 9.34879 1.94978 8.47953C1.21686 7.64099 0.75 6.59523 0.75 5.07757C0.75 3.61001 1.34549 2.55455 2.23259 1.84995C3.1395 1.12963 4.3922 0.747295 5.70813 0.750014C8.37069 0.755516 10.9254 2.29239 11.2549 5.16312L12.7386 5.20762C13.2527 2.28684 15.8537 0.755492 18.4468 0.750032C19.7333 0.747323 20.9434 1.12753 21.8167 1.84287C22.6717 2.54317 23.25 3.59948 23.25 5.07757C23.25 6.59523 22.7831 7.64099 22.0502 8.47953C21.2905 9.34879 20.2199 10.0259 18.9407 10.7405C18.6757 10.8885 18.4022 11.0375 18.1228 11.1898Z" stroke="white" stroke-width="1.5"/>
</svg>
