<svg width="36" height="36" viewBox="0 0 36 36" fill="none" xmlns="http://www.w3.org/2000/svg">
<path d="M34.6419 1.3596C33.7356 0.453062 32.6495 0 31.3842 0H4.61837C3.35268 0 2.26694 0.453226 1.36041 1.3596C0.454039 2.26572 0.000976562 3.35162 0.000976562 4.61706V31.3827C0.000976562 32.648 0.453957 33.7341 1.36041 34.6403C2.26694 35.5466 3.35293 36 4.61837 36H31.3839C32.6489 36 33.7353 35.5466 34.6416 34.6403C35.5482 33.7341 36.0008 32.648 36.0008 31.3827V4.61706C36.0007 3.35138 35.5482 2.26605 34.6419 1.3596ZM12.9272 12.9725C14.3411 11.6055 16.0404 10.9217 18.0248 10.9217C20.0245 10.9217 21.7315 11.6055 23.1457 12.9725C24.56 14.3397 25.2667 15.9922 25.2667 17.9296C25.2667 19.8668 24.56 21.5194 23.1457 22.8862C21.7315 24.2538 20.0251 24.9375 18.0248 24.9375C16.0405 24.9375 14.3413 24.2532 12.9272 22.8862C11.5129 21.5193 10.8058 19.8668 10.8058 17.9296C10.8058 15.9922 11.5129 14.3398 12.9272 12.9725ZM31.9233 30.4221C31.9233 30.8281 31.7823 31.1678 31.5013 31.4414C31.2195 31.7147 30.8841 31.8515 30.4931 31.8515H5.43879C5.0326 31.8515 4.6925 31.7147 4.4193 31.4414C4.14569 31.1684 4.009 30.8281 4.009 30.4221V15.2341H7.31359C7.00123 16.2186 6.84501 17.2422 6.84501 18.3045C6.84501 21.3052 7.93863 23.8633 10.1261 25.9809C12.3139 28.0977 14.9466 29.1566 18.0247 29.1566C20.056 29.1566 21.9309 28.672 23.6502 27.7034C25.3689 26.7341 26.7274 25.418 27.7281 23.7538C28.7283 22.0896 29.2283 20.2731 29.2283 18.3046C29.2283 17.2423 29.0715 16.2189 28.7591 15.2342H31.9235V30.4222H31.9233V30.4221ZM31.9233 9.49189C31.9233 9.94503 31.7671 10.3279 31.4541 10.6403C31.1417 10.953 30.7591 11.1092 30.3057 11.1092H26.2278C25.7749 11.1092 25.3917 10.953 25.0793 10.6403C24.7669 10.3279 24.6107 9.94503 24.6107 9.49189V5.62506C24.6107 5.18751 24.7669 4.80866 25.0793 4.48826C25.3917 4.16802 25.7749 4.0077 26.2278 4.0077H30.3057C30.7591 4.0077 31.1418 4.16794 31.4541 4.48826C31.767 4.80866 31.9233 5.18751 31.9233 5.62506V9.49189Z" fill="#3B6ABB"/>
</svg>
