<svg width="79" height="39" viewBox="0 0 79 39" fill="none" xmlns="http://www.w3.org/2000/svg">
<path fill-rule="evenodd" clip-rule="evenodd" d="M0 16H7.24786L8.71667 28.7922L14.3608 16.0486H21L9.66775 38H3.5903L0 16Z" fill="#3B6ABB"/>
<path fill-rule="evenodd" clip-rule="evenodd" d="M21.9217 16H29L25.1804 38H18L21.9217 16Z" fill="#3B6ABB"/>
<path fill-rule="evenodd" clip-rule="evenodd" d="M48 17.6997L46.1159 22.4068C43.9391 21.4622 41.66 21.0261 39.2792 21.1076C36.7528 21.1076 36.176 23.4409 40.3684 24.5007C47.6155 25.9589 48.1178 32.3731 44.2237 36.728C41.169 39.8049 32.5599 39.7094 28 36.728L29.8198 32.0185C32.6644 33.3385 35.0488 33.9598 36.9766 33.8879C41.3617 33.604 40.9063 30.5438 37.5517 29.3519C32.1123 27.8717 29.9926 25.1958 31.1996 21.3277C31.8986 17.3821 35.5041 15.6275 42.0174 16.0657C44.1411 16.2291 46.1353 16.7745 48 17.6997Z" fill="#3B6ABB"/>
<path fill-rule="evenodd" clip-rule="evenodd" d="M25.1641 0H30.4896L34 6.41659L28.2957 13H23L27.4031 6.41659L25.1641 0Z" fill="#3B6ABB"/>
<path fill-rule="evenodd" clip-rule="evenodd" d="M51.8484 16H59L55.1199 38H48L51.8484 16Z" fill="#3B6ABB"/>
<path fill-rule="evenodd" clip-rule="evenodd" d="M62.8205 16.3115H69.8912L69.2856 20.1456C72.0692 17.4124 75.3072 16.0309 79 16L77.7351 22.8035C72.6416 22.7496 69.5687 23.2568 68.5278 24.3256L66.0727 38H59L62.8205 16.3115Z" fill="#3B6ABB"/>
</svg>
