<svg width="80" height="80" viewBox="0 0 80 80" fill="none" xmlns="http://www.w3.org/2000/svg">
<rect x="0.5" y="0.5" width="79" height="79" rx="1.5" fill="white" stroke="#3B6ABB"/>
<g clip-path="url(#clip0)">
<path d="M55.3125 24.375C52.7277 24.375 50.625 22.2723 50.625 19.6875C50.625 17.1027 52.7277 15 55.3125 15C57.8973 15 60 17.1027 60 19.6875C60 22.2723 57.8973 24.375 55.3125 24.375ZM55.3125 16.5625C53.5895 16.5625 52.1875 17.9645 52.1875 19.6875C52.1875 21.4105 53.5895 22.8125 55.3125 22.8125C57.0355 22.8125 58.4375 21.4105 58.4375 19.6875C58.4375 17.9645 57.0355 16.5625 55.3125 16.5625Z" fill="#3B6ABB"/>
<path d="M40.9198 23.6243H20.7812C20.3497 23.6243 20 23.2742 20 22.843C20 20.1425 22.2379 17.9507 24.9545 18.0338C26.0995 16.1496 28.1241 15 30.3574 15C32.1872 15 33.9316 15.8029 35.1273 17.1722C35.545 17.0685 35.9747 17.0163 36.4108 17.0163C39.3439 17.0163 41.73 19.4025 41.73 22.3352C41.73 22.5284 41.7184 22.7283 41.6962 22.9294C41.6519 23.3252 41.3177 23.6243 40.9198 23.6243V23.6243ZM21.6574 22.0618H40.1575C40.0168 20.1175 38.3902 18.5788 36.4108 18.5788C35.9656 18.5788 35.5301 18.6557 35.1166 18.8074C34.7888 18.9279 34.4205 18.8156 34.2154 18.533C33.32 17.2992 31.8777 16.5625 30.3574 16.5625C28.5391 16.5625 26.9049 17.5748 26.0919 19.2041C25.9415 19.5056 25.6143 19.6765 25.2811 19.6286C25.1236 19.6057 24.9655 19.5941 24.8114 19.5941C23.2892 19.5941 22.0081 20.6464 21.6574 22.0618Z" fill="#3B6ABB"/>
<path d="M54.96 51.6095C54.9094 51.6095 54.8587 51.604 54.8077 51.5936C54.7577 51.5845 54.7086 51.5695 54.6619 51.55C54.6149 51.5305 54.5694 51.5064 54.5273 51.4783C54.4843 51.4493 54.4446 51.4163 54.4086 51.3806C54.3719 51.3446 54.3399 51.3046 54.3109 51.2616C54.2828 51.2195 54.2587 51.1743 54.2392 51.1273C54.2197 51.0797 54.2047 51.0306 54.1946 50.9812C54.1843 50.9305 54.1797 50.8789 54.1797 50.8283C54.1797 50.7773 54.1843 50.7257 54.1946 50.6757C54.2047 50.6259 54.2197 50.5765 54.2392 50.5298C54.2587 50.4822 54.2828 50.4367 54.3109 50.3946C54.339 50.3516 54.3719 50.3119 54.408 50.2759C54.4437 50.2399 54.4843 50.2069 54.5267 50.1788C54.5694 50.1508 54.6149 50.1267 54.6619 50.1071C54.7086 50.0876 54.7577 50.0726 54.8077 50.0626C54.9084 50.0421 55.0125 50.0421 55.1132 50.0626C55.1633 50.0726 55.2124 50.0876 55.2594 50.1071C55.3064 50.1267 55.3516 50.1508 55.3946 50.1788C55.4367 50.2069 55.4773 50.2399 55.5133 50.2759C55.5493 50.3119 55.582 50.3516 55.61 50.3946C55.6384 50.4367 55.6625 50.4822 55.6821 50.5298C55.7016 50.5768 55.7166 50.6259 55.7266 50.6757C55.7367 50.7257 55.7422 50.7773 55.7422 50.8283C55.7422 50.8789 55.7367 50.9305 55.7266 50.9812C55.7166 51.0306 55.7016 51.0797 55.6821 51.1273C55.6625 51.1743 55.6384 51.2195 55.61 51.2616C55.582 51.3046 55.5493 51.3446 55.5133 51.3806C55.4773 51.4163 55.4367 51.4493 55.3946 51.4783C55.3516 51.5064 55.3064 51.5305 55.2594 51.55C55.2124 51.5695 55.1633 51.5845 55.1132 51.5936C55.0626 51.604 55.0116 51.6095 54.96 51.6095V51.6095Z" fill="#3B6ABB"/>
<path d="M59.2188 46.6568H57.7713V37.9554L58.0054 38.1272C58.1421 38.2276 58.3044 38.2788 58.468 38.2788C58.5883 38.2788 58.7094 38.2511 58.8208 38.1946C59.0836 38.0616 59.2493 37.7921 59.2493 37.4976V33.2196C59.2493 32.9709 59.1309 32.7372 58.9304 32.5898L48.2465 24.7412C47.9712 24.5392 47.5964 24.5392 47.3212 24.7412L42.627 28.1897L40.4626 26.5998C40.1874 26.3974 39.8126 26.3974 39.5374 26.5998L37.3727 28.1897L32.6785 24.7412C32.4036 24.5392 32.0288 24.5392 31.7535 24.7412L21.0693 32.5901C20.8691 32.7372 20.7507 32.9709 20.7507 33.2196V37.4976C20.7507 37.7921 20.9164 38.0619 21.1792 38.1946C21.2906 38.2511 21.4114 38.2788 21.532 38.2788C21.6953 38.2788 21.8579 38.2279 21.9943 38.1275L22.2287 37.9554V46.6568H20.7812C20.3497 46.6568 20 47.0066 20 47.4381V54.2188C20 54.6503 20.3497 55 20.7812 55H59.2188C59.6503 55 60 54.6503 60 54.2188V47.4381C60 47.0066 59.6503 46.6568 59.2188 46.6568V46.6568ZM56.2088 36.8076L56.2091 46.6568H49.9878L49.9875 39.8136L50.2219 39.9857C50.2258 39.9887 50.2298 39.9915 50.2338 39.9945C50.2353 39.9955 50.2365 39.9961 50.2377 39.997C50.2405 39.9991 50.2432 40.0009 50.2463 40.0028C50.2478 40.004 50.2493 40.0049 50.2509 40.0061C50.2533 40.0077 50.2557 40.0095 50.2585 40.011C50.26 40.0122 50.2618 40.0135 50.2637 40.0144C50.2661 40.0162 50.2689 40.0177 50.2716 40.0196C50.2728 40.0205 50.2744 40.0214 50.2759 40.022C50.2786 40.0238 50.2817 40.0257 50.2847 40.0275C50.2859 40.0281 50.2875 40.029 50.2887 40.0299C50.2924 40.0318 50.2957 40.0339 50.2994 40.036C50.3 40.0363 50.3009 40.037 50.3015 40.0373C50.3104 40.0421 50.3192 40.047 50.3284 40.0516C50.329 40.0519 50.3293 40.0519 50.3299 40.0522C50.3336 40.0544 50.3375 40.0562 50.3415 40.058C50.3424 40.0586 50.3436 40.0592 50.3445 40.0595C50.3479 40.0614 50.3516 40.0629 50.3552 40.0644C50.3561 40.065 50.3571 40.0653 50.358 40.0659C50.3619 40.0675 50.3656 40.0693 50.3693 40.0711C50.3702 40.0714 50.3708 40.0717 50.3714 40.0721C50.5508 40.1505 50.7544 40.1587 50.9406 40.094C50.9412 40.0937 50.9412 40.0937 50.9415 40.0937C50.9549 40.0888 50.968 40.084 50.9811 40.0785C50.9824 40.0779 50.9836 40.0775 50.9848 40.0769C50.9872 40.076 50.9897 40.0751 50.9921 40.0739C50.9937 40.0733 50.9952 40.0727 50.9967 40.0721C50.9988 40.0711 51.0007 40.0702 51.0028 40.0693C51.0049 40.0684 51.0068 40.0675 51.0089 40.0666C51.0107 40.0659 51.0126 40.065 51.0144 40.0641C51.0165 40.0632 51.019 40.062 51.0214 40.0608C51.0229 40.0602 51.0242 40.0595 51.0257 40.0586C51.0297 40.0568 51.0333 40.055 51.037 40.0531C51.2997 39.9201 51.4655 39.6506 51.4655 39.3561V35.0779C51.4655 34.8291 51.347 34.5954 51.1469 34.4483L46.8585 31.2982L47.7838 30.6186L56.2088 36.8076ZM41.7712 50.047H38.2288V45.3867H41.7712V50.047ZM42.5525 43.8242H37.4475C37.0163 43.8242 36.6663 44.1742 36.6663 44.6054V50.047H31.575V38.6658L40 32.4768L48.425 38.6658L48.4253 50.047H43.3337V44.6054C43.3337 44.1742 42.9837 43.8242 42.5525 43.8242V43.8242ZM47.7838 26.3404L57.6868 33.6151V35.9543L48.2465 29.0192C47.9929 28.833 47.6544 28.8184 47.3877 28.9756C47.3648 28.989 47.3428 29.0036 47.3215 29.0192L45.5389 30.3287L43.9468 29.159L47.7838 26.3404ZM40 28.1986L49.903 35.4734V37.8125L49.6689 37.6404L40.4626 30.8777C40.441 30.8618 40.419 30.8472 40.3964 30.8341C40.152 30.69 39.848 30.69 39.6039 30.8341C39.581 30.8475 39.559 30.8618 39.5374 30.8777L30.3311 37.6404L30.097 37.8125V35.4734L40 28.1986ZM22.3132 33.6151L32.2162 26.3404L36.0532 29.159L34.4611 30.3287L32.6785 29.0195C32.4036 28.8172 32.0288 28.8172 31.7535 29.0195L22.3132 35.9543V33.6151ZM23.7912 36.8076L32.2162 30.6183L33.1415 31.2982L28.8531 34.4483C28.8501 34.4504 28.847 34.4529 28.844 34.455C28.6832 34.5771 28.577 34.755 28.5449 34.9512C28.5437 34.9588 28.5425 34.9665 28.5416 34.9741C28.5406 34.9817 28.5397 34.9893 28.5388 34.997C28.5361 35.0235 28.5345 35.0507 28.5345 35.0779V39.3561C28.5345 39.6506 28.7003 39.9201 28.963 40.0531C28.967 40.055 28.9713 40.0571 28.9752 40.0592C29.064 40.102 29.158 40.127 29.2532 40.1346C29.4373 40.1496 29.6243 40.0989 29.7784 39.9857L30.0125 39.8136V46.6568H23.7915L23.7912 36.8076ZM30.0125 48.2193V50.047H21.5625V48.2193H30.0125ZM58.4375 53.4375H21.5625V51.6095H51.7969C52.2284 51.6095 52.5781 51.2598 52.5781 50.8283C52.5781 50.3971 52.2284 50.047 51.7969 50.047H49.9878V48.2193H58.4375V53.4375Z" fill="#3B6ABB"/>
<path d="M40 42.185C38.136 42.185 36.6193 40.6686 36.6193 38.8043C36.6193 36.9402 38.136 35.4238 40 35.4238C41.864 35.4238 43.3807 36.9402 43.3807 38.8043C43.3807 40.6686 41.864 42.185 40 42.185V42.185ZM40 36.986C38.9975 36.986 38.1818 37.8018 38.1818 38.8043C38.1818 39.8068 38.9975 40.6225 40 40.6225C41.0025 40.6225 41.8182 39.8068 41.8182 38.8043C41.8182 37.8018 41.0025 36.986 40 36.986Z" fill="#3B6ABB"/>
</g>
<path d="M25.2 74V73.48L24.74 73.3C23.9 72.98 23.56 72.48 23.04 71.44L21.28 67.96C22.56 67.62 23.8 66.6 23.8 64.3C23.8 61.92 22.62 60.6 20 60.6H15.76V61.12L17.02 61.56V73.04L15.76 73.48V74H19.42V73.48L18.18 73.04V68.12H20.14L21.94 71.78C22.98 73.9 23 74 24.7 74H25.2ZM18.18 67.22V61.5H19.94C21.8 61.5 22.66 62.52 22.66 64.32C22.66 66.5 21.48 67.22 19.86 67.22H18.18ZM31.2711 72.22C30.7111 72.82 29.7711 73.34 28.8711 73.34C27.7511 73.34 27.1911 72.46 27.1911 71.24C27.1911 69.68 27.9111 68.74 29.8311 68.74C30.1511 68.74 30.8711 68.76 31.2711 68.82V72.22ZM33.6511 74V73.48L32.3711 72.94V66.56C32.3711 64.26 31.2911 63.56 29.6511 63.56C28.4711 63.56 27.1711 63.96 26.5911 64.24V66.38H27.4311L27.8311 64.74C28.3111 64.58 29.0111 64.46 29.4911 64.46C30.4511 64.46 31.2711 64.86 31.2711 66.54V67.96C30.9311 67.92 30.1111 67.88 29.8111 67.88C27.1711 67.88 26.0311 69.1 26.0311 71.38C26.0311 73.3 27.1911 74.24 28.6711 74.24C29.7911 74.24 30.7711 73.66 31.3511 73.08H31.3911V73.88L31.5111 74H33.6511ZM40.7752 60.52L40.2752 59.78L38.8552 60.7C38.4352 60.26 37.9752 59.88 37.4952 59.5L36.7552 60.14C37.1752 60.44 37.6152 60.82 38.0352 61.24L36.6752 62.14L37.2152 62.88L38.6552 61.94C39.4352 62.8 39.7952 63.4 40.1952 64.24C39.7352 63.92 39.0752 63.56 38.1552 63.56C35.8152 63.56 34.3152 65.84 34.3152 68.92C34.3152 72.04 35.8552 74.24 38.2152 74.24C40.6152 74.24 42.1552 72 42.1552 68.74C42.1552 65.92 41.2752 63.48 39.4752 61.38L40.7752 60.52ZM38.2152 73.34C36.2152 73.34 35.4152 70.98 35.4152 68.94C35.4152 66.66 36.4152 64.46 38.2352 64.46C40.0552 64.46 41.0552 66.66 41.0552 68.92C41.0552 70.98 40.2152 73.34 38.2152 73.34ZM51.7577 74V73.48L50.6577 73.04V66.48C50.6577 64.28 49.6777 63.56 48.2577 63.56C46.9777 63.56 45.7577 64.52 45.2377 65V60.46L45.1377 60.36H44.6777L42.9977 60.6V61.18L44.0977 61.48V73.04L43.0177 73.48V74H46.3177V73.48L45.2377 73.04V65.94C45.7177 65.48 46.9577 64.46 47.9777 64.46C49.0777 64.46 49.5577 65.14 49.5577 66.44V73.04L48.4777 73.48V74H51.7577ZM60.8764 74V73.44L59.5964 72.94V63.78L59.4964 63.68H59.0564L57.4164 63.8V64.32L58.4964 64.76V71.9C57.9364 72.42 56.6964 73.3 55.6364 73.3C54.6764 73.3 54.2564 72.58 54.2564 71.34V63.78L54.1564 63.68H53.7164L52.0764 63.8V64.32L53.1564 64.76V71.32C53.1564 73.52 54.1364 74.24 55.5564 74.24C56.8764 74.24 57.8764 73.3 58.5364 72.86V73.88L58.6364 74H60.8764ZM58.1364 60.84L57.6164 59.92L54.5764 61.98L55.0364 62.7L58.1364 60.84ZM61.3422 73.66C62.2022 74.02 63.1222 74.24 63.9222 74.24C65.5622 74.24 67.0022 73.28 67.0022 71.48C67.0022 68.3 62.4422 68.62 62.4422 66.1C62.4422 65 63.3022 64.46 64.2422 64.46C64.6622 64.46 65.1222 64.56 65.5022 64.7L65.7622 66.26H66.6422V64.14C65.8422 63.8 65.0822 63.56 64.2822 63.56C62.6822 63.56 61.3422 64.5 61.3422 66.2C61.3422 69.36 65.9022 69.1 65.9022 71.64C65.9022 72.76 65.0222 73.34 63.9622 73.34C63.4822 73.34 62.9422 73.22 62.5022 73.06L62.2422 71.32H61.3422V73.66Z" fill="#3B6ABB"/>
<defs>
<clipPath id="clip0">
<rect width="40" height="40" fill="white" transform="translate(20 15)"/>
</clipPath>
</defs>
</svg>
