<svg width="80" height="80" viewBox="0 0 80 80" fill="none" xmlns="http://www.w3.org/2000/svg">
<rect x="0.5" y="0.5" width="79" height="79" rx="1.5" fill="white" stroke="#3B6ABB"/>
<path d="M4.86 73.42C5.66 73.98 6.96 74.24 7.94 74.24C10 74.24 11.82 73.08 11.82 70.68C11.82 66.34 5.86 67.02 5.86 63.6C5.86 62.04 6.96 61.26 8.28 61.26C8.82 61.26 9.44 61.4 9.94 61.56L10.24 63.52H11.14V60.96C10.32 60.58 9.26 60.36 8.38 60.36C6.44 60.36 4.68 61.48 4.68 63.74C4.68 67.92 10.68 67.2 10.68 70.78C10.68 72.38 9.6 73.34 8 73.34C7.36 73.34 6.62 73.18 6.1 72.9L5.76 70.64H4.86V73.42ZM21.2864 74V73.44L20.0064 72.94V63.78L19.9064 63.68H19.4664L17.8264 63.8V64.32L18.9064 64.76V71.9C18.3464 72.42 17.1064 73.3 16.0464 73.3C15.0864 73.3 14.6664 72.58 14.6664 71.34V63.78L14.5664 63.68H14.1264L12.4864 63.8V64.32L13.5664 64.76V71.32C13.5664 73.52 14.5464 74.24 15.9664 74.24C17.2864 74.24 18.2864 73.3 18.9464 72.86V73.88L19.0464 74H21.2864ZM35.8838 74V73.48L34.7838 73.04V66.9C34.7838 64.34 33.8638 63.56 32.4838 63.56C31.1638 63.56 30.1038 64.34 29.2038 65.14C28.8838 63.98 28.0638 63.56 27.0838 63.56C25.7038 63.56 24.6438 64.42 23.9638 65V63.78L23.8638 63.68H23.4238L21.7838 63.8V64.32L22.8638 64.76V73.04L21.7838 73.48V74H25.0638V73.48L23.9638 73.04V65.96C24.6238 65.4 25.8038 64.52 26.9438 64.52C27.8638 64.52 28.2838 65.22 28.2838 66.44V73.04L27.2038 73.48V74H30.4838V73.48L29.3838 73.04V66.36C29.3838 66.24 29.3638 66.1 29.3638 65.98C30.0438 65.4 31.2038 64.52 32.3438 64.52C33.2638 64.52 33.6838 65.22 33.6838 66.44V73.04L32.6038 73.48V74H35.8838ZM42.1852 72.22C41.6252 72.82 40.6852 73.34 39.7852 73.34C38.6652 73.34 38.1052 72.46 38.1052 71.24C38.1052 69.68 38.8252 68.74 40.7452 68.74C41.0652 68.74 41.7852 68.76 42.1852 68.82V72.22ZM44.5652 74V73.48L43.2852 72.94V66.56C43.2852 64.26 42.2052 63.56 40.5652 63.56C39.3852 63.56 38.0852 63.96 37.5052 64.24V66.38H38.3452L38.7452 64.74C39.2252 64.58 39.9252 64.46 40.4052 64.46C41.3652 64.46 42.1852 64.86 42.1852 66.54V67.96C41.8452 67.92 41.0252 67.88 40.7252 67.88C38.0852 67.88 36.9452 69.1 36.9452 71.38C36.9452 73.3 38.1052 74.24 39.5852 74.24C40.7052 74.24 41.6852 73.66 42.2652 73.08H42.3052V73.88L42.4252 74H44.5652ZM48.4288 74V73.48L47.0888 73.04V65.86C47.8288 65.24 48.5488 64.88 49.1688 64.82L49.3888 66.02H50.3487V63.66C50.1888 63.6 49.9088 63.56 49.5688 63.56C48.7288 63.56 47.7088 64.38 47.0888 65.08V63.78L46.9888 63.68H46.5488L44.9088 63.8V64.32L45.9888 64.76V73.04L44.9088 73.48V74H48.4288ZM59.5272 74V73.48L58.4272 73.04V66.48C58.4272 64.28 57.4472 63.56 56.0272 63.56C54.7472 63.56 53.5272 64.52 53.0072 65V60.46L52.9072 60.36H52.4472L50.7672 60.6V61.18L51.8672 61.48V73.04L50.7872 73.48V74H54.0872V73.48L53.0072 73.04V65.94C53.4872 65.48 54.7272 64.46 55.7472 64.46C56.8472 64.46 57.3272 65.14 57.3272 66.44V73.04L56.2472 73.48V74H59.5272ZM68.6459 74V73.44L67.3659 72.94V63.78L67.2659 63.68H66.8259L65.1859 63.8V64.32L66.2659 64.76V71.9C65.7059 72.42 64.4659 73.3 63.4059 73.3C62.4459 73.3 62.0259 72.58 62.0259 71.34V63.78L61.9259 63.68H61.4859L59.8459 63.8V64.32L60.9259 64.76V71.32C60.9259 73.52 61.9059 74.24 63.3259 74.24C64.6459 74.24 65.6459 73.3 66.3059 72.86V73.88L66.4059 74H68.6459ZM65.9059 60.84L65.3859 59.92L62.3459 61.98L62.8059 62.7L65.9059 60.84ZM69.1117 73.66C69.9717 74.02 70.8917 74.24 71.6917 74.24C73.3317 74.24 74.7717 73.28 74.7717 71.48C74.7717 68.3 70.2117 68.62 70.2117 66.1C70.2117 65 71.0717 64.46 72.0117 64.46C72.4317 64.46 72.8917 64.56 73.2717 64.7L73.5317 66.26H74.4117V64.14C73.6117 63.8 72.8517 63.56 72.0517 63.56C70.4517 63.56 69.1117 64.5 69.1117 66.2C69.1117 69.36 73.6717 69.1 73.6717 71.64C73.6717 72.76 72.7917 73.34 71.7317 73.34C71.2517 73.34 70.7117 73.22 70.2717 73.06L70.0117 71.32H69.1117V73.66Z" fill="#3B6ABB"/>
<g clip-path="url(#clip0)">
<path d="M33.5807 32.5988H30.2183C29.8947 32.5988 29.6323 32.8611 29.6323 33.1847V37.8827C29.6323 38.2063 29.8946 38.4686 30.2183 38.4686H33.5807C33.9043 38.4686 34.1666 38.2063 34.1666 37.8827V33.1847C34.1666 32.8612 33.9043 32.5988 33.5807 32.5988ZM32.9947 37.2967H30.8042V33.7707H32.9947V37.2967Z" fill="#3B6ABB"/>
<path d="M55.8694 30.7188C56.1283 30.8968 56.5015 30.8337 56.6842 30.5679C56.6842 30.5679 58.4818 27.9531 58.4834 27.9508C58.6642 27.6877 58.5949 27.3164 58.3324 27.1359L41.2315 15.3803C40.4949 14.8741 39.5052 14.874 38.7686 15.3803C38.7686 15.3803 27.8496 22.8864 27.8097 22.9138C27.1917 23.3386 27.8432 24.313 28.4735 23.8796L39.4325 16.3461C39.7721 16.1128 40.2283 16.1128 40.5677 16.346L57.1856 27.7698L56.0504 29.4211C56.0504 29.4211 40.3361 18.6186 40.332 18.6158C40.1371 18.4818 39.8633 18.4816 39.6681 18.6157L23.9498 29.4211L22.8146 27.7698C22.8146 27.7698 26.4957 25.2393 26.5091 25.23C27.119 24.8108 26.4766 23.8303 25.8452 24.2643C25.8452 24.2643 21.681 27.1268 21.6678 27.1359C21.4042 27.3171 21.3364 27.6883 21.5167 27.9508L23.2128 30.4179V54.4145C23.2128 54.7381 23.4751 55.0005 23.7987 55.0005H40.0001C40.3237 55.0005 40.586 54.7381 40.586 54.4145V45.9359H51.4563V54.4146C51.4563 54.7382 51.7187 55.0006 52.0423 55.0006H54.4242C54.7478 55.0006 55.0102 54.7382 55.0102 54.4146V45.9359H56.8671C57.1907 45.9359 57.4531 45.6735 57.4531 45.3499V42.9681C57.4531 42.6444 57.1907 42.3822 56.8671 42.3822H55.0102V37.9088H56.8671C57.1907 37.9088 57.4531 37.6465 57.4531 37.3229V34.941C57.4531 34.6174 57.1907 34.3551 56.8671 34.3551H55.0102V30.1282L55.8694 30.7188ZM52.6283 29.6003H53.8382V34.3548H52.6283V29.6003ZM40.0001 19.8096L43.0528 21.9082H36.9474L40.0001 19.8096ZM24.3848 36.1203H27.3847V40.2652C27.3847 40.5887 27.6471 40.8512 27.9707 40.8512H35.8282C36.1518 40.8512 36.4142 40.5888 36.4142 40.2652V36.1203H39.414V41.4684H24.3848V36.1203ZM28.5567 39.6792V31.3894H35.2422V39.6792H28.5567V39.6792ZM27.3847 53.8286H24.3848V49.1603H27.3847V53.8286ZM32.9947 53.8285H30.8042V47.1267H32.9947V53.8285ZM35.2422 53.8285H34.1666V46.5408C34.1666 46.2172 33.9043 45.9548 33.5807 45.9548H30.2182C29.8946 45.9548 29.6322 46.2172 29.6322 46.5408V53.8285H28.5566V44.7449H35.2422V53.8285ZM39.414 53.8286H36.4141V49.1603H39.414V53.8286H39.414ZM39.4141 47.9884H36.4142V44.1589C36.4141 43.8353 36.1518 43.573 35.8281 43.573H27.9707C27.6471 43.573 27.3847 43.8353 27.3847 44.159V47.9885H24.3848V42.6404H39.4141V47.9884ZM39.4141 34.9401C39.4141 34.9403 39.4141 34.9405 39.4141 34.9408V34.9483H36.4142V30.8034C36.4142 30.4798 36.1518 30.2175 35.8283 30.2175H27.9707C27.6471 30.2175 27.3847 30.4798 27.3847 30.8034V34.9483H24.3848V30.5442L25.7647 29.5955C25.7879 29.5983 25.8114 29.6002 25.8353 29.6002H39.4141V34.9401ZM27.4628 28.4283L35.2425 23.0802H44.7576L52.5374 28.4283H52.0424H27.4628ZM51.4563 29.6003V34.3548H40.5861V29.6003H51.4563ZM40.5861 37.9087H41.7959V42.382H40.5861V37.9087ZM53.8382 53.8286H52.6283V45.9359H53.8382V53.8286ZM56.2811 43.5541V44.7639H40.5861V43.5541H56.2811ZM42.9679 42.382V37.9087H44.1778V42.382H42.9679ZM45.3498 42.382V37.9087H46.6261V42.382H45.3498ZM47.798 42.382V37.9087H49.008V42.382H47.798ZM50.1799 42.382V37.9087H51.4563V42.382H50.1799ZM52.6283 42.382V37.9087H53.8382V42.382H52.6283ZM56.2811 35.5268V36.7367H40.5861V35.5268H56.2811Z" fill="#3B6ABB"/>
</g>
<defs>
<clipPath id="clip0">
<rect width="40" height="40" fill="white" transform="translate(20 15)"/>
</clipPath>
</defs>
</svg>
