<svg width="48" height="63" viewBox="0 0 48 63" fill="none" xmlns="http://www.w3.org/2000/svg">
<path d="M14.6179 36.0973C14.3472 34.53 12.9772 33.3334 11.3332 33.3334C10.0206 33.3334 8.88322 34.096 8.33986 35.2013C8.23252 35.1247 8.11783 35.0566 7.99986 34.9953V24C7.99986 23.632 7.70119 23.3334 7.33322 23.3334C6.96525 23.3334 6.66658 23.632 6.66658 24V34.6666C5.19596 34.6666 3.99994 35.8627 3.99994 37.3334C3.99994 38.8041 5.19596 40 6.66658 40H13.9999C15.1026 40 15.9999 39.1027 15.9999 38C15.9999 37.1127 15.4192 36.3587 14.6179 36.0973ZM13.9999 38.6666H6.66658C5.93127 38.6666 5.33322 38.0687 5.33322 37.3333C5.33322 36.5979 5.93127 36 6.66658 36C7.28861 36 7.84127 36.3613 8.04189 36.9C8.15455 37.202 8.46658 37.38 8.78525 37.3227C9.1026 37.2653 9.33322 36.9893 9.33322 36.6666C9.33322 35.564 10.2306 34.6666 11.3332 34.6666C12.4359 34.6666 13.3332 35.564 13.3332 36.6666C13.3332 37.0346 13.6319 37.3333 13.9999 37.3333C14.3672 37.3333 14.6665 37.6326 14.6665 37.9999C14.6665 38.3673 14.3673 38.6666 13.9999 38.6666Z" fill="#3B6ABB"/>
<path d="M43.3333 5.33336H30.6666C30.2986 5.33336 29.9999 5.63203 29.9999 6C29.9999 6.36797 30.2986 6.66664 30.6666 6.66664H42.6666V21.0573L24.4713 2.86203C24.3406 2.73133 24.1692 2.66672 23.9979 2.66672C23.8266 2.66672 23.6553 2.73141 23.5245 2.86203L5.3333 21.0566V6.66664H12.6667C13.0346 6.66664 13.3333 6.36797 13.3333 6V3.33336C13.3333 2.96539 13.0346 2.66672 12.6667 2.66672H11.9999V1.33336H15.9999V2.66672H15.3333C14.9653 2.66672 14.6667 2.96539 14.6667 3.33336V6C14.6667 6.36797 14.9653 6.66664 15.3333 6.66664H17.3333C17.7013 6.66664 17.9999 6.36797 17.9999 6C17.9999 5.63203 17.7013 5.33336 17.3333 5.33336H15.9999V4H16.6666C17.0346 4 17.3332 3.70133 17.3332 3.33336V0.666641C17.3332 0.298672 17.0346 0 16.6666 0H11.3333C10.9653 0 10.6667 0.298672 10.6667 0.666641V3.33328C10.6667 3.70125 10.9653 3.99992 11.3333 3.99992H11.9999V5.33328H4.66658C4.48994 5.33328 4.31994 5.40328 4.19525 5.52859C4.06994 5.65336 3.99994 5.82336 3.99994 6L4.0026 22.6666C4.0026 22.9366 4.16525 23.1793 4.41463 23.2827C4.49729 23.3166 4.5833 23.3334 4.66932 23.3334C4.8433 23.3334 5.014 23.2654 5.14064 23.138L23.9979 4.27398L42.8619 23.138C42.9892 23.2653 43.1599 23.3333 43.3332 23.3333C43.4192 23.3333 43.5059 23.3166 43.5885 23.2826C43.8372 23.1792 43.9999 22.9359 43.9999 22.6666V6C43.9999 5.63203 43.7013 5.33336 43.3333 5.33336Z" fill="#3B6ABB"/>
<path d="M41.3333 34.6666V24C41.3333 23.632 41.0346 23.3334 40.6667 23.3334C40.2987 23.3334 40 23.632 40 24V34.9953C39.8821 35.0566 39.7674 35.1246 39.66 35.2013C39.1167 34.096 37.9793 33.3334 36.6667 33.3334C35.0227 33.3334 33.6527 34.53 33.382 36.0973C32.5807 36.3587 32 37.1127 32 38C32 38.2353 32.0479 38.4573 32.1233 38.6666H20.6666C20.2986 38.6666 20 38.9653 20 39.3333C20 39.7012 20.2986 39.9999 20.6666 39.9999H41.3332C42.8039 40 44 38.804 44 37.3334C44 35.8627 42.8039 34.6666 41.3333 34.6666ZM41.3333 38.6666H34C33.6326 38.6666 33.3333 38.3673 33.3333 38C33.3333 37.6327 33.6326 37.3334 34 37.3334C34.3679 37.3334 34.6666 37.0347 34.6666 36.6667C34.6666 35.5641 35.5639 34.6667 36.6666 34.6667C37.7693 34.6667 38.6666 35.5641 38.6666 36.6667C38.6666 36.9894 38.8973 37.2654 39.2146 37.3227C39.5312 37.3807 39.8453 37.202 39.9579 36.9001C40.1586 36.3614 40.7113 36.0001 41.3332 36.0001C42.0686 36.0001 42.6666 36.598 42.6666 37.3334C42.6666 38.0688 42.0686 38.6666 41.3333 38.6666Z" fill="#3B6ABB"/>
<path d="M26.6666 13.3334C26.6666 11.8627 25.4706 10.6667 23.9999 10.6667C22.5292 10.6667 21.3333 11.8627 21.3333 13.3334C21.3333 14.804 22.5292 16 23.9999 16C25.4706 16 26.6666 14.804 26.6666 13.3334ZM22.6666 13.3334C22.6666 12.5981 23.2646 12 23.9999 12C24.7353 12 25.3333 12.598 25.3333 13.3334C25.3333 14.0687 24.7353 14.6667 23.9999 14.6667C23.2646 14.6666 22.6666 14.0687 22.6666 13.3334Z" fill="#3B6ABB"/>
<path d="M36.6666 22.6666H31.3332C30.9653 22.6666 30.6666 22.9653 30.6666 23.3333V30.6666H29.9999C29.632 30.6666 29.3333 30.9653 29.3333 31.3333C29.3333 31.7012 29.632 31.9999 29.9999 31.9999H37.9999C38.3679 31.9999 38.6666 31.7012 38.6666 31.3333C38.6666 30.9653 38.3679 30.6666 37.9999 30.6666H37.3333V23.3333C37.3333 22.9653 37.0346 22.6666 36.6666 22.6666ZM35.9999 30.6666H31.9999V28H35.9999V30.6666ZM35.9999 26.6666H31.9999V24H35.9999V26.6666Z" fill="#3B6ABB"/>
<path d="M30.6666 36.6666C30.6666 36.2987 30.3679 36 30 36H28V23.3334C28 22.9654 27.7013 22.6667 27.3333 22.6667H20.6667C20.2987 22.6667 20.0001 22.9654 20.0001 23.3334V36H18.0001C17.6321 36 17.3334 36.2987 17.3334 36.6666V39.3333C17.3334 39.7012 17.6321 39.9999 18.0001 39.9999C18.368 39.9999 18.6667 39.7012 18.6667 39.3333V37.3333H30C30.3679 37.3334 30.6666 37.0347 30.6666 36.6666ZM26.6666 29.3334H26C25.632 29.3334 25.3333 29.632 25.3333 30C25.3333 30.368 25.632 30.6666 26 30.6666H26.6666V36H21.3333V24H26.6666V29.3334Z" fill="#3B6ABB"/>
<path d="M16.6666 22.6666H11.3333C10.9654 22.6666 10.6667 22.9653 10.6667 23.3333V30.6666H9.99998C9.63201 30.6666 9.33334 30.9653 9.33334 31.3333C9.33334 31.7012 9.63201 32 9.99998 32H18C18.3679 32 18.6666 31.7013 18.6666 31.3334C18.6666 30.9654 18.3679 30.6667 18 30.6667H17.3333V23.3334C17.3333 22.9653 17.0347 22.6666 16.6666 22.6666ZM16 30.6666H12V28H16V30.6666ZM16 26.6666H12V24H16V26.6666Z" fill="#3B6ABB"/>
<path d="M8.17994 59L8.23994 58.88V56.06H7.37994L7.13994 57.62C7.05994 58.06 7.03994 58.1 6.47994 58.1H2.77994V52.54H6.15994L6.49994 53.9H7.21994V50.3H6.49994L6.15994 51.64H2.77994V46.5H6.05994C6.63994 46.5 6.63994 46.54 6.71994 46.98L6.97994 48.5H7.83994V45.74L7.75994 45.6H0.439941V46.12L1.61994 46.56V58.04L0.439941 58.48V59H8.17994Z" fill="#3B6ABB"/>
<path d="M11.7667 45.76C11.7667 45.32 11.4067 44.96 10.9667 44.96C10.5267 44.96 10.1667 45.32 10.1667 45.76C10.1667 46.2 10.5267 46.56 10.9667 46.56C11.4067 46.56 11.7467 46.2 11.7667 45.76ZM12.6067 59V58.48L11.5067 58.04V48.78L11.4067 48.68H10.9667L9.32666 48.8V49.32L10.4067 49.76V58.04L9.32666 58.48V59H12.6067Z" fill="#3B6ABB"/>
<path d="M22.0287 59V58.48L20.9287 58.04V51.48C20.9287 49.28 19.9087 48.56 18.6287 48.56C17.2287 48.56 16.2687 49.38 15.5887 50V48.78L15.4887 48.68H15.0487L13.4087 48.8V49.32L14.4887 49.76V58.04L13.4087 58.48V59H16.6887V58.48L15.5887 58.04V51.04C16.2687 50.42 17.3687 49.52 18.4487 49.52C19.4087 49.52 19.8287 50.22 19.8287 51.44V58.04L18.7487 58.48V59H22.0287Z" fill="#3B6ABB"/>
<path d="M24.8465 50.48C25.3265 50.06 26.1665 49.5 27.1865 49.5C28.7865 49.5 29.9665 50.72 29.9665 53.62C29.9665 57.1 28.2265 58.34 26.5465 58.34C26.0265 58.34 25.1465 58.14 24.8465 58V50.48ZM24.2465 59.08C24.3865 58.98 24.4865 58.92 24.6265 58.92C24.8865 58.92 25.4665 59.24 26.5065 59.24C28.6265 59.24 31.0865 57.8 31.0865 53.62C31.0865 50.26 29.5865 48.56 27.4065 48.56C26.2865 48.56 25.3865 49.08 24.8465 49.54V45.46L24.7465 45.36H24.2865L22.6065 45.6V46.18L23.7065 46.48V59.08H24.2465Z" fill="#3B6ABB"/>
<path d="M35.1128 59.42C34.4928 61.3 33.6528 61.48 32.9728 61.48C32.4928 61.48 32.0328 61.38 31.6328 61.24L31.4128 62.26C31.9128 62.46 32.4728 62.54 32.8928 62.54C34.4528 62.54 35.3928 62 36.2728 59.28L39.3728 49.76L40.4328 49.32V48.8H37.1328V49.32L38.1928 49.76L35.8728 57.12L33.4328 49.76L34.4728 49.32V48.8H31.1728V49.32L32.2928 49.76L35.3128 58.82L35.1128 59.42ZM37.8528 45.84L37.3328 44.92L34.2928 46.98L34.7528 47.7L37.8528 45.84Z" fill="#3B6ABB"/>
<path d="M43.5832 59V58.48L42.5032 58.04V45.46L42.4032 45.36H41.9432L40.2632 45.6V46.18L41.3632 46.48V58.04L40.2832 58.48V59H43.5832Z" fill="#3B6ABB"/>
<path d="M46.8643 45.76C46.8643 45.32 46.5043 44.96 46.0643 44.96C45.6243 44.96 45.2643 45.32 45.2643 45.76C45.2643 46.2 45.6243 46.56 46.0643 46.56C46.5043 46.56 46.8443 46.2 46.8643 45.76ZM47.7043 59V58.48L46.6043 58.04V48.78L46.5043 48.68H46.0643L44.4243 48.8V49.32L45.5043 49.76V58.04L44.4243 58.48V59H47.7043Z" fill="#3B6ABB"/>
</svg>
