<svg width="80" height="80" viewBox="0 0 80 80" fill="none" xmlns="http://www.w3.org/2000/svg">
<rect x="0.5" y="0.5" width="79" height="79" rx="1.5" fill="white" stroke="#3B6ABB"/>
<g clip-path="url(#clip0)">
<path d="M20 53.3333V54.1667C20 54.6269 20.3731 55 20.8334 55H59.1667C59.627 55 60.0001 54.6269 60.0001 54.1666V53.3333H20V53.3333Z" fill="#3B6ABB"/>
<path d="M35.8333 30H22.5C22.0398 30 21.6666 30.3731 21.6666 30.8334V54.1667C21.6666 54.6269 22.0398 55 22.5 55H35.8333C36.2936 55 36.6667 54.6269 36.6667 54.1666V30.8334C36.6666 30.3731 36.2936 30 35.8333 30ZM35 53.3334H23.3333V31.6666H35V53.3334Z" fill="#3B6ABB"/>
<path d="M57.5 20H44.1666C43.7064 20 43.3333 20.3731 43.3333 20.8334V54.1667C43.3333 54.627 43.7064 55.0001 44.1666 55.0001H57.5C57.9602 55.0001 58.3333 54.627 58.3333 54.1667V20.8334C58.3333 20.3731 57.9602 20 57.5 20ZM56.6666 53.3334H45V21.6666H56.6666V53.3334V53.3334Z" fill="#3B6ABB"/>
<path d="M51.6666 15H29.1666C28.7064 15 28.3333 15.3731 28.3333 15.8334V28.3334H30V16.6666H50.8333V18.3333H52.5V15.8333C52.5 15.3731 52.1268 15 51.6666 15Z" fill="#3B6ABB"/>
<path d="M26.6666 33.3334H25V48.3334H26.6666V33.3334Z" fill="#3B6ABB"/>
<path d="M30 33.3334H28.3334V48.3334H30V33.3334Z" fill="#3B6ABB"/>
<path d="M33.3333 33.3334H31.6666V48.3334H33.3333V33.3334Z" fill="#3B6ABB"/>
<path d="M53.3333 24.1666H44.1666V25.8333H53.3333V24.1666Z" fill="#3B6ABB"/>
<path d="M53.3333 28.3334H44.1666V30H53.3333V28.3334Z" fill="#3B6ABB"/>
<path d="M53.3333 32.5H44.1666V34.1666H53.3333V32.5Z" fill="#3B6ABB"/>
<path d="M53.3333 36.6666H44.1666V38.3333H53.3333V36.6666Z" fill="#3B6ABB"/>
<path d="M53.3333 40.8334H44.1666V42.5H53.3333V40.8334Z" fill="#3B6ABB"/>
<path d="M53.3333 45H44.1666V46.6666H53.3333V45Z" fill="#3B6ABB"/>
<path d="M34.1666 19.1666H32.5V21.6666H34.1666V19.1666Z" fill="#3B6ABB"/>
<path d="M34.1666 24.1666H32.5V26.6666H34.1666V24.1666Z" fill="#3B6ABB"/>
<path d="M37.5 24.1666H35.8334V26.6666H37.5V24.1666Z" fill="#3B6ABB"/>
<path d="M37.5 19.1666H35.8334V21.6666H37.5V19.1666Z" fill="#3B6ABB"/>
<path d="M40.8333 19.1666H39.1666V21.6666H40.8333V19.1666Z" fill="#3B6ABB"/>
<path d="M40.8333 24.1666H39.1666V26.6666H40.8333V24.1666Z" fill="#3B6ABB"/>
<path d="M40.8333 29.1666H39.1666V31.6666H40.8333V29.1666Z" fill="#3B6ABB"/>
<path d="M40.8333 34.1666H39.1666V36.6666H40.8333V34.1666Z" fill="#3B6ABB"/>
<path d="M40.8333 39.1666H39.1666V41.6666H40.8333V39.1666Z" fill="#3B6ABB"/>
<path d="M40.8333 44.1666H39.1666V46.6666H40.8333V44.1666Z" fill="#3B6ABB"/>
<path d="M51.6666 49.1666H47.5C47.0398 49.1666 46.6666 49.5398 46.6666 50V54.1666H48.3333V50.8333H50.8333V54.1666H52.5V50C52.5 49.5398 52.1269 49.1666 51.6666 49.1666Z" fill="#3B6ABB"/>
<path d="M32.5 50H25.8334C25.3731 50 25 50.3731 25 50.8334V54.1667H26.6666V51.6667H31.6666V54.1667H33.3333V50.8334C33.3334 50.3731 32.9602 50 32.5 50Z" fill="#3B6ABB"/>
</g>
<path d="M6.86 73.42C7.66 73.98 8.96 74.24 9.94 74.24C12 74.24 13.82 73.08 13.82 70.68C13.82 66.34 7.86 67.02 7.86 63.6C7.86 62.04 8.96 61.26 10.28 61.26C10.82 61.26 11.44 61.4 11.94 61.56L12.24 63.52H13.14V60.96C12.32 60.58 11.26 60.36 10.38 60.36C8.44 60.36 6.68 61.48 6.68 63.74C6.68 67.92 12.68 67.2 12.68 70.78C12.68 72.38 11.6 73.34 10 73.34C9.36 73.34 8.62 73.18 8.1 72.9L7.76 70.64H6.86V73.42ZM23.3217 74V73.48L22.9417 73.34C22.4017 73.14 22.2217 73.02 21.2417 71.84L18.1417 68.12L21.4217 64.78L22.5817 64.32V63.8H19.2217V64.32L20.2017 64.78L16.9017 68.2V60.46L16.8017 60.36H16.3417L14.6617 60.6V61.18L15.7617 61.48V73.04L14.6817 73.48V74H17.9817V73.48L16.9017 73.04V68.3L20.0417 72.18C21.4817 73.96 21.5617 74 22.5817 74H23.3217ZM27.4405 74V73.48L26.1005 73.04V65.86C26.8405 65.24 27.5605 64.88 28.1805 64.82L28.4005 66.02H29.3605V63.66C29.2005 63.6 28.9205 63.56 28.5805 63.56C27.7405 63.56 26.7205 64.38 26.1005 65.08V63.78L26.0005 63.68H25.5605L23.9205 63.8V64.32L25.0005 64.76V73.04L23.9205 73.48V74H27.4405ZM32.5323 60.76C32.5323 60.32 32.1723 59.96 31.7323 59.96C31.2923 59.96 30.9323 60.32 30.9323 60.76C30.9323 61.2 31.2923 61.56 31.7323 61.56C32.1723 61.56 32.5123 61.2 32.5323 60.76ZM33.3723 74V73.48L32.2723 73.04V63.78L32.1723 63.68H31.7323L30.0923 63.8V64.32L31.1723 64.76V73.04L30.0923 73.48V74H33.3723ZM37.7944 74V73.48L36.4144 73.04V64.7H38.1944L38.3144 63.8H36.4144V63C36.4144 61.34 36.8144 60.86 37.8344 60.86C37.9544 60.86 38.2144 60.88 38.3344 60.9L38.7344 62.44H39.5544V60.16C39.1144 60.06 38.4544 59.96 37.9144 59.96C36.2744 59.96 35.3144 60.7 35.3144 62.9V63.8L34.1344 63.86V64.6L35.3144 64.7V73.04L34.2344 73.5V74H37.7944ZM39.0414 73.66C39.9014 74.02 40.8214 74.24 41.6214 74.24C43.2614 74.24 44.7014 73.28 44.7014 71.48C44.7014 68.3 40.1414 68.62 40.1414 66.1C40.1414 65 41.0014 64.46 41.9414 64.46C42.3614 64.46 42.8214 64.56 43.2014 64.7L43.4614 66.26H44.3414V64.14C43.5414 63.8 42.7814 63.56 41.9814 63.56C40.3814 63.56 39.0414 64.5 39.0414 66.2C39.0414 69.36 43.6014 69.1 43.6014 71.64C43.6014 72.76 42.7214 73.34 41.6614 73.34C41.1814 73.34 40.6414 73.22 40.2014 73.06L39.9414 71.32H39.0414V73.66ZM50.8611 73.04C50.6011 73.16 49.7811 73.28 49.2811 73.28C48.4411 73.28 47.9611 72.78 47.9611 71.74V64.7H50.5211L50.6811 63.8H47.9611V61.74H47.3011C46.8811 63.06 46.4811 63.54 45.4011 63.88V64.56L46.8611 64.7V71.84C46.8611 73.78 47.9011 74.16 49.1211 74.16C49.8211 74.16 50.4811 74.06 50.8611 73.86V73.04ZM55.1898 73.34C53.2098 73.34 52.3898 71.16 52.3898 68.92C52.3898 66.44 53.3698 64.46 55.1898 64.46C57.0098 64.46 57.9898 66.44 57.9898 68.92C57.9898 71.16 57.1898 73.34 55.1898 73.34ZM55.1898 74.24C57.5098 74.24 59.1498 72.32 59.1498 68.86C59.1498 65.42 57.5298 63.56 55.1898 63.56C52.8498 63.56 51.2298 65.44 51.2298 68.88C51.2298 72.34 52.8698 74.24 55.1898 74.24ZM63.6733 74V73.48L62.2933 73.04V64.7H64.0733L64.1933 63.8H62.2933V63C62.2933 61.34 62.6933 60.86 63.7133 60.86C63.8333 60.86 64.0933 60.88 64.2133 60.9L64.6133 62.44H65.4333V60.16C64.9933 60.06 64.3333 59.96 63.7933 59.96C62.1533 59.96 61.1933 60.7 61.1933 62.9V63.8L60.0133 63.86V64.6L61.1933 64.7V73.04L60.1133 73.5V74H63.6733ZM70.025 72.22C69.465 72.82 68.525 73.34 67.625 73.34C66.505 73.34 65.945 72.46 65.945 71.24C65.945 69.68 66.665 68.74 68.585 68.74C68.905 68.74 69.625 68.76 70.025 68.82V72.22ZM72.405 74V73.48L71.125 72.94V66.56C71.125 64.26 70.045 63.56 68.405 63.56C67.225 63.56 65.925 63.96 65.345 64.24V66.38H66.185L66.585 64.74C67.065 64.58 67.765 64.46 68.245 64.46C69.205 64.46 70.025 64.86 70.025 66.54V67.96C69.685 67.92 68.865 67.88 68.565 67.88C65.925 67.88 64.785 69.1 64.785 71.38C64.785 73.3 65.945 74.24 67.425 74.24C68.545 74.24 69.525 73.66 70.105 73.08H70.145V73.88L70.265 74H72.405Z" fill="#3B6ABB"/>
<defs>
<clipPath id="clip0">
<rect width="40" height="40" fill="white" transform="translate(20 15)"/>
</clipPath>
</defs>
</svg>
