<svg width="80" height="80" viewBox="0 0 80 80" fill="none" xmlns="http://www.w3.org/2000/svg">
<rect x="0.5" y="0.5" width="79" height="79" rx="1.5" fill="white" stroke="#3B6ABB"/>
<g clip-path="url(#clip0)">
<path d="M59.3333 39H57.2926L56 18.3128V15.6667C56 15.2985 55.7015 15 55.3333 15H48.6667C48.2985 15 48 15.2985 48 15.6667V18.3128L46.7074 39H45.3333V25C45.3333 24.724 45.1631 24.4766 44.9056 24.3779C44.6478 24.279 44.3561 24.349 44.1712 24.554L39.3333 29.9294V25C39.3333 24.724 39.1631 24.4766 38.9056 24.3779C38.6478 24.279 38.3561 24.349 38.1712 24.554L33.3333 29.9294V25C33.3333 24.724 33.1631 24.4766 32.9056 24.3779C32.6478 24.279 32.3561 24.349 32.1712 24.554L27.3333 29.9294V25C27.3333 24.724 27.1631 24.4766 26.9056 24.3779C26.6478 24.279 26.3561 24.349 26.1712 24.554L20.1712 31.2207C20.125 31.2731 20.0869 31.3324 20.0592 31.3968C20.0527 31.4115 20.0508 31.4274 20.0452 31.4427C20.0241 31.516 20.0091 31.5908 20 31.6667V54.3333C20 54.7015 20.2985 55 20.6667 55H59.3333C59.7015 55 60 54.7015 60 54.3333V39.6667C60 39.2985 59.7015 39 59.3333 39ZM49.3333 16.3333H54.6667V17.6667H49.3333V16.3333ZM48.876 25.6667H53.3333C53.7015 25.6667 54 25.3682 54 25C54 24.6318 53.7015 24.3333 53.3333 24.3333H48.9593L49.0426 23H50.6667C51.0348 23 51.3333 22.7015 51.3333 22.3333C51.3333 21.9652 51.0348 21.6667 50.6667 21.6667H49.126L49.2926 19H54.7074L55.5407 32.3333H51.3333C50.9652 32.3333 50.6667 32.6318 50.6667 33C50.6667 33.3682 50.9652 33.6667 51.3333 33.6667H55.624L55.7074 35H54C53.6318 35 53.3333 35.2985 53.3333 35.6667C53.3333 36.0348 53.6318 36.3333 54 36.3333H55.7907L55.9574 39H48.0426L48.876 25.6667ZM58.6667 40.3333V42.3333H53.3333C52.9652 42.3333 52.6667 42.6318 52.6667 43C52.6667 43.3682 52.9652 43.6667 53.3333 43.6667H58.6667V45H48C47.6318 45 47.3333 45.2985 47.3333 45.6667C47.3333 46.0348 47.6318 46.3333 48 46.3333H58.6667V48.3333H50.6667C50.2985 48.3333 50 48.6318 50 49C50 49.3682 50.2985 49.6667 50.6667 49.6667H58.6667V51H45.3333V49.6667H48C48.3682 49.6667 48.6667 49.3682 48.6667 49C48.6667 48.6318 48.3682 48.3333 48 48.3333H45.3333V43.6667H50.6667C51.0348 43.6667 51.3333 43.3682 51.3333 43C51.3333 42.6318 51.0348 42.3333 50.6667 42.3333H45.3333V40.3333H58.6667ZM42.6667 51V41C42.6667 40.6318 42.3682 40.3333 42 40.3333H32C31.6318 40.3333 31.3333 40.6318 31.3333 41V51H21.3333V37.6667H44V51H42.6667ZM41.3333 51H32.6667V41.6667H41.3333V51ZM44 32.3333V36.3333H21.3333V32.3333H44ZM44 26.7367V31H40.1634L44 26.7367ZM38 26.7367V31H34.1634L38 26.7367ZM32 26.7367V31H28.1634L32 26.7367ZM26 26.7367V31H22.1634L26 26.7367ZM58.6667 53.6667H21.3333V52.3333H58.6667V53.6667Z" fill="#3B6ABB"/>
<path d="M29.3333 40.3334H23.3333C22.9651 40.3334 22.6666 40.6319 22.6666 41V46.3334C22.6666 46.7016 22.9651 47.0001 23.3333 47.0001H29.3333C29.7015 47.0001 30 46.7016 30 46.3334V41C30 40.6319 29.7015 40.3334 29.3333 40.3334ZM28.6666 45.6667H24V41.6667H28.6666V45.6667Z" fill="#3B6ABB"/>
<path d="M34.6667 47.0001H35.3333C35.7015 47.0001 36 46.7016 36 46.3334C36 45.9653 35.7015 45.6667 35.3333 45.6667H34.6667C34.2985 45.6667 34 45.9653 34 46.3334C34 46.7016 34.2985 47.0001 34.6667 47.0001Z" fill="#3B6ABB"/>
</g>
<path d="M15.94 74V73.48L14.78 73.04V61.56L15.94 61.12V60.6H12.44V61.12L13.62 61.56V73.04L12.44 73.48V74H15.94ZM23.2244 60.52L22.7244 59.78L21.3044 60.7C20.8844 60.26 20.4244 59.88 19.9444 59.5L19.2044 60.14C19.6244 60.44 20.0644 60.82 20.4844 61.24L19.1244 62.14L19.6644 62.88L21.1044 61.94C21.8844 62.8 22.2444 63.4 22.6444 64.24C22.1844 63.92 21.5244 63.56 20.6044 63.56C18.2644 63.56 16.7644 65.84 16.7644 68.92C16.7644 72.04 18.3044 74.24 20.6644 74.24C23.0644 74.24 24.6044 72 24.6044 68.74C24.6044 65.92 23.7244 63.48 21.9244 61.38L23.2244 60.52ZM20.6644 73.34C18.6644 73.34 17.8644 70.98 17.8644 68.94C17.8644 66.66 18.8644 64.46 20.6844 64.46C22.5044 64.46 23.5044 66.66 23.5044 68.92C23.5044 70.98 22.6644 73.34 20.6644 73.34ZM34.2436 74V73.48L33.1436 73.04V66.48C33.1436 64.28 32.1236 63.56 30.8436 63.56C29.4436 63.56 28.4836 64.38 27.8036 65V63.78L27.7036 63.68H27.2636L25.6236 63.8V64.32L26.7036 64.76V73.04L25.6236 73.48V74H28.9036V73.48L27.8036 73.04V66.04C28.4836 65.42 29.5836 64.52 30.6636 64.52C31.6236 64.52 32.0436 65.22 32.0436 66.44V73.04L30.9636 73.48V74H34.2436ZM40.3805 72.22C39.8205 72.82 38.8805 73.34 37.9805 73.34C36.8605 73.34 36.3005 72.46 36.3005 71.24C36.3005 69.68 37.0205 68.74 38.9405 68.74C39.2605 68.74 39.9805 68.76 40.3805 68.82V72.22ZM42.7605 74V73.48L41.4805 72.94V66.56C41.4805 64.26 40.4005 63.56 38.7605 63.56C37.5805 63.56 36.2805 63.96 35.7005 64.24V66.38H36.5405L36.9405 64.74C37.4205 64.58 38.1205 64.46 38.6005 64.46C39.5605 64.46 40.3805 64.86 40.3805 66.54V67.96C40.0405 67.92 39.2205 67.88 38.9205 67.88C36.2805 67.88 35.1405 69.1 35.1405 71.38C35.1405 73.3 36.3005 74.24 37.7805 74.24C38.9005 74.24 39.8805 73.66 40.4605 73.08H40.5005V73.88L40.6205 74H42.7605ZM49.8845 60.52L49.3845 59.78L47.9645 60.7C47.5445 60.26 47.0845 59.88 46.6045 59.5L45.8645 60.14C46.2845 60.44 46.7245 60.82 47.1445 61.24L45.7845 62.14L46.3245 62.88L47.7645 61.94C48.5445 62.8 48.9045 63.4 49.3045 64.24C48.8445 63.92 48.1845 63.56 47.2645 63.56C44.9245 63.56 43.4245 65.84 43.4245 68.92C43.4245 72.04 44.9645 74.24 47.3245 74.24C49.7245 74.24 51.2645 72 51.2645 68.74C51.2645 65.92 50.3845 63.48 48.5845 61.38L49.8845 60.52ZM47.3245 73.34C45.3245 73.34 44.5245 70.98 44.5245 68.94C44.5245 66.66 45.5245 64.46 47.3445 64.46C49.1645 64.46 50.1645 66.66 50.1645 68.92C50.1645 70.98 49.3245 73.34 47.3245 73.34ZM61.0638 74V73.44L59.7838 72.94V63.78L59.6838 63.68H59.2438L57.6038 63.8V64.32L58.6838 64.76V71.9C58.1238 72.42 56.8838 73.3 55.8238 73.3C54.8638 73.3 54.4438 72.58 54.4438 71.34V63.78L54.3438 63.68H53.9038L52.2638 63.8V64.32L53.3438 64.76V71.32C53.3438 73.52 54.3238 74.24 55.7438 74.24C57.0638 74.24 58.0638 73.3 58.7238 72.86V73.88L58.8238 74H61.0638ZM65.0616 74V73.48L63.7216 73.04V65.86C64.4616 65.24 65.1816 64.88 65.8016 64.82L66.0216 66.02H66.9816V63.66C66.8216 63.6 66.5416 63.56 66.2016 63.56C65.3616 63.56 64.3416 64.38 63.7216 65.08V63.78L63.6216 63.68H63.1816L61.5416 63.8V64.32L62.6216 64.76V73.04L61.5416 73.48V74H65.0616Z" fill="#3B6ABB"/>
<defs>
<clipPath id="clip0">
<rect width="40" height="40" fill="white" transform="translate(20 15)"/>
</clipPath>
</defs>
</svg>
