<svg width="80" height="80" viewBox="0 0 80 80" fill="none" xmlns="http://www.w3.org/2000/svg">
<rect x="0.5" y="0.5" width="79" height="79" rx="1.5" fill="white" stroke="#3B6ABB"/>
<path d="M54.4001 15.1335C54.2845 15.0469 54.1442 15 54 15H47.3333C47.1891 15 47.0488 15.0469 46.9333 15.1335L41.5999 19.1335C41.4323 19.2591 41.3333 19.4567 41.3333 19.6667V25.6667H39.3333V25C39.3333 23.8955 38.4378 23 37.3333 23C36.2288 23 35.3333 23.8955 35.3333 25V25.6667H33.3333V25C33.3333 23.8955 32.4378 23 31.3333 23C30.2288 23 29.3333 23.8955 29.3333 25V25.6667H27.3333V25C27.3333 23.8955 26.4378 23 25.3333 23C24.2288 23 23.3333 23.8955 23.3333 25V25.6667H20.6667C20.2985 25.6667 20 25.9652 20 26.3333V29C20 29.3682 20.2985 29.6667 20.6667 29.6667H23.3333V31H20V55H60V19.6667C60 19.4567 59.901 19.2591 59.7334 19.1335L54.4001 15.1335ZM42.6667 20L47.5553 16.3333H53.778L58.6667 20V31H56.6667V22.3333C56.6667 21.9652 56.3682 21.6667 56 21.6667H45.3333C44.9652 21.6667 44.6667 21.9652 44.6667 22.3333V31H42.6667V20ZM49.8721 31H46V23H50V31H49.8721ZM51.3333 23H55.3333V31H51.3333V23ZM41.3333 31H39.3333V29.6667H41.3333V31ZM41.3333 27V28.3333H39.3333V27H41.3333ZM37.3333 24.3333C37.7015 24.3333 38 24.6318 38 25V31H36.6667V25C36.6667 24.6318 36.9652 24.3333 37.3333 24.3333ZM35.3333 31H33.3333V29.6667H35.3333V31ZM35.3333 27V28.3333H33.3333V27H35.3333ZM31.3333 24.3333C31.7015 24.3333 32 24.6318 32 25V31H30.6667V25C30.6667 24.6318 30.9652 24.3333 31.3333 24.3333ZM29.3333 31H27.3333V29.6667H29.3333V31ZM29.3333 27V28.3333H27.3333V27H29.3333ZM21.3333 28.3333V27H23.3333V28.3333H21.3333ZM24.6667 25C24.6667 24.6318 24.9652 24.3333 25.3333 24.3333C25.7015 24.3333 26 24.6318 26 25V31H24.6667V25ZM32.9954 32.3333C29.8327 34.2715 24.7373 38.8887 21.3333 49.4339V32.3333H32.9954ZM21.5127 53.6667C25.9072 35.9225 35.1999 32.6133 36.0947 32.3333H40.318C36.9473 34.7575 30.5599 40.9668 29.3945 53.6667H21.5127ZM30.7266 53.6667C32.1719 38.474 41.6279 32.972 42.8275 32.3333H47.5999C44.528 34.6159 39.1533 40.4466 38.056 53.6667H30.7266ZM39.388 53.6667C40.7826 37.3112 49.1019 32.8314 50.1432 32.3333H54.2406C52.0407 34.6488 47.974 40.6432 47.3652 53.6667H39.388ZM58.6667 53.6667H48.6953C49.4287 38.2467 55.224 33.1032 56.2168 32.3333H58.6667V53.6667Z" fill="#3B6ABB"/>
<path d="M56.6667 51H56C55.6319 51 55.3334 51.2985 55.3334 51.6667C55.3334 52.0348 55.6319 52.3333 56 52.3333H56.6667C57.0349 52.3333 57.3334 52.0348 57.3334 51.6667C57.3334 51.2985 57.0349 51 56.6667 51Z" fill="#3B6ABB"/>
<path d="M52.6667 47.6666H52C51.6319 47.6666 51.3334 47.9651 51.3334 48.3333C51.3334 48.7015 51.6319 49 52 49H52.6667C53.0349 49 53.3334 48.7015 53.3334 48.3333C53.3334 47.9651 53.0349 47.6666 52.6667 47.6666Z" fill="#3B6ABB"/>
<path d="M56.6667 45H56C55.6319 45 55.3334 45.2985 55.3334 45.6667C55.3334 46.0348 55.6319 46.3333 56 46.3333H56.6667C57.0349 46.3333 57.3334 46.0348 57.3334 45.6667C57.3334 45.2985 57.0349 45 56.6667 45Z" fill="#3B6ABB"/>
<path d="M54 41H53.3333C52.9651 41 52.6666 41.2985 52.6666 41.6667C52.6666 42.0348 52.9651 42.3333 53.3333 42.3333H54C54.3681 42.3333 54.6666 42.0348 54.6666 41.6667C54.6666 41.2985 54.3681 41 54 41Z" fill="#3B6ABB"/>
<path d="M55.3334 38.3333C55.3334 38.7015 55.6319 39 56 39H56.6667C57.0349 39 57.3334 38.7015 57.3334 38.3333C57.3334 37.9651 57.0349 37.6666 56.6667 37.6666H56C55.6319 37.6666 55.3334 37.9651 55.3334 38.3333Z" fill="#3B6ABB"/>
<path d="M42.6667 49.6666H42C41.6319 49.6666 41.3334 49.9651 41.3334 50.3333C41.3334 50.7015 41.6319 51 42 51H42.6667C43.0349 51 43.3334 50.7015 43.3334 50.3333C43.3334 49.9651 43.0349 49.6666 42.6667 49.6666Z" fill="#3B6ABB"/>
<path d="M46 45H45.3333C44.9651 45 44.6666 45.2985 44.6666 45.6667C44.6666 46.0348 44.9651 46.3333 45.3333 46.3333H46C46.3681 46.3333 46.6666 46.0348 46.6666 45.6667C46.6666 45.2985 46.3681 45 46 45Z" fill="#3B6ABB"/>
<path d="M45.3333 42.3333C45.7015 42.3333 46 42.0348 46 41.6667C46 41.2985 45.7015 41 45.3333 41H44.6667C44.2985 41 44 41.2985 44 41.6667C44 42.0348 44.2985 42.3333 44.6667 42.3333H45.3333Z" fill="#3B6ABB"/>
<path d="M48.6667 36.3333H49.3333C49.7015 36.3333 50 36.0348 50 35.6667C50 35.2985 49.7015 35 49.3333 35H48.6667C48.2985 35 48 35.2985 48 35.6667C48 36.0348 48.2985 36.3333 48.6667 36.3333Z" fill="#3B6ABB"/>
<path d="M34 51H33.3333C32.9651 51 32.6666 51.2985 32.6666 51.6667C32.6666 52.0348 32.9651 52.3333 33.3333 52.3333H34C34.3681 52.3333 34.6666 52.0348 34.6666 51.6667C34.6666 51.2985 34.3681 51 34 51Z" fill="#3B6ABB"/>
<path d="M37.3333 44.3334H36.6667C36.2985 44.3334 36 44.6319 36 45C36 45.3682 36.2985 45.6667 36.6667 45.6667H37.3333C37.7015 45.6667 38 45.3682 38 45C38 44.6319 37.7015 44.3334 37.3333 44.3334Z" fill="#3B6ABB"/>
<path d="M40 38.3333H40.6667C41.0349 38.3333 41.3334 38.0348 41.3334 37.6667C41.3334 37.2985 41.0349 37 40.6667 37H40C39.6319 37 39.3334 37.2985 39.3334 37.6667C39.3334 38.0348 39.6319 38.3333 40 38.3333Z" fill="#3B6ABB"/>
<path d="M28 49H27.3333C26.9651 49 26.6666 49.2985 26.6666 49.6667C26.6666 50.0348 26.9651 50.3333 27.3333 50.3333H28C28.3681 50.3333 28.6666 50.0348 28.6666 49.6667C28.6666 49.2985 28.3681 49 28 49Z" fill="#3B6ABB"/>
<path d="M27.3333 44.3333H28C28.3681 44.3333 28.6666 44.0348 28.6666 43.6667C28.6666 43.2985 28.3681 43 28 43H27.3333C26.9651 43 26.6666 43.2985 26.6666 43.6667C26.6666 44.0348 26.9651 44.3333 27.3333 44.3333Z" fill="#3B6ABB"/>
<path d="M31.3333 39.6667H32C32.3681 39.6667 32.6666 39.3682 32.6666 39C32.6666 38.6319 32.3681 38.3334 32 38.3334H31.3333C30.9651 38.3334 30.6666 38.6319 30.6666 39C30.6666 39.3682 30.9651 39.6667 31.3333 39.6667Z" fill="#3B6ABB"/>
<path d="M23.3333 39.6667H24C24.3681 39.6667 24.6666 39.3682 24.6666 39C24.6666 38.6319 24.3681 38.3334 24 38.3334H23.3333C22.9651 38.3334 22.6666 38.6319 22.6666 39C22.6666 39.3682 22.9651 39.6667 23.3333 39.6667Z" fill="#3B6ABB"/>
<path d="M25.3333 35.6667H26C26.3681 35.6667 26.6666 35.3682 26.6666 35C26.6666 34.6319 26.3681 34.3334 26 34.3334H25.3333C24.9651 34.3334 24.6666 34.6319 24.6666 35C24.6666 35.3682 24.9651 35.6667 25.3333 35.6667Z" fill="#3B6ABB"/>
<path d="M53.3333 25.6666C52.9651 25.6666 52.6666 25.9651 52.6666 26.3333V27C52.6666 27.3681 52.9651 27.6666 53.3333 27.6666C53.7015 27.6666 54 27.3681 54 27V26.3333C54 25.9651 53.7015 25.6666 53.3333 25.6666Z" fill="#3B6ABB"/>
<path d="M48 25.6666C47.6319 25.6666 47.3334 25.9651 47.3334 26.3333V27C47.3334 27.3681 47.6319 27.6666 48 27.6666C48.3682 27.6666 48.6667 27.3681 48.6667 27V26.3333C48.6667 25.9651 48.3682 25.6666 48 25.6666Z" fill="#3B6ABB"/>
<path d="M28.8 70.98C28.8 72.64 27.96 73.34 26.94 73.34C26.5 73.34 25.86 73.26 25.68 73.22L25.28 71.06H24.46V73.96C24.9 74.06 26 74.24 26.86 74.24C28.5 74.24 29.94 73.28 29.94 71.08V61.56L31.1 61.12V60.6H27.6V61.12L28.8 61.56V70.98ZM35.4555 73.34C33.4755 73.34 32.6555 71.16 32.6555 68.92C32.6555 66.44 33.6355 64.46 35.4555 64.46C37.2755 64.46 38.2555 66.44 38.2555 68.92C38.2555 71.16 37.4555 73.34 35.4555 73.34ZM35.4555 74.24C37.7755 74.24 39.4155 72.32 39.4155 68.86C39.4155 65.42 37.7955 63.56 35.4555 63.56C33.1155 63.56 31.4955 65.44 31.4955 68.88C31.4955 72.34 33.1355 74.24 35.4555 74.24ZM37.6155 60.66C37.6155 60.22 37.2555 59.86 36.8155 59.86C36.3755 59.86 36.0155 60.22 36.0155 60.66C36.0155 61.1 36.3755 61.46 36.8155 61.46C37.2555 61.46 37.6155 61.1 37.6155 60.66ZM34.8755 60.66C34.8755 60.22 34.5155 59.86 34.0755 59.86C33.6355 59.86 33.2755 60.22 33.2755 60.66C33.2755 61.1 33.6355 61.46 34.0755 61.46C34.5155 61.46 34.8755 61.1 34.8755 60.66ZM43.8389 74V73.48L42.4989 73.04V65.86C43.2389 65.24 43.9589 64.88 44.5789 64.82L44.7989 66.02H45.7589V63.66C45.5989 63.6 45.3189 63.56 44.9789 63.56C44.1389 63.56 43.1189 64.38 42.4989 65.08V63.78L42.3989 63.68H41.9589L40.3189 63.8V64.32L41.3989 64.76V73.04L40.3189 73.48V74H43.8389ZM53.2127 60.52L52.7127 59.78L51.2927 60.7C50.8727 60.26 50.4127 59.88 49.9327 59.5L49.1927 60.14C49.6127 60.44 50.0527 60.82 50.4727 61.24L49.1127 62.14L49.6527 62.88L51.0927 61.94C51.8727 62.8 52.2327 63.4 52.6327 64.24C52.1727 63.92 51.5127 63.56 50.5927 63.56C48.2527 63.56 46.7527 65.84 46.7527 68.92C46.7527 72.04 48.2927 74.24 50.6527 74.24C53.0527 74.24 54.5927 72 54.5927 68.74C54.5927 65.92 53.7127 63.48 51.9127 61.38L53.2127 60.52ZM50.6527 73.34C48.6527 73.34 47.8527 70.98 47.8527 68.94C47.8527 66.66 48.8527 64.46 50.6727 64.46C52.4927 64.46 53.4927 66.66 53.4927 68.92C53.4927 70.98 52.6527 73.34 50.6527 73.34Z" fill="#3B6ABB"/>
</svg>
