<svg width="80" height="80" viewBox="0 0 80 80" fill="none" xmlns="http://www.w3.org/2000/svg">
<rect x="0.5" y="0.5" width="79" height="79" rx="1.5" fill="white" stroke="#3B6ABB"/>
<g clip-path="url(#clip0)">
<path d="M59.3334 53.6675H56.6255C56.6539 53.4485 56.6667 53.2248 56.6667 53.0009C56.6667 51.1192 55.5838 49.5175 54.0001 48.7757V26.3343C54.0001 25.9343 53.7334 25.6676 53.3334 25.6676H43.3334V15.6676C43.3334 15.2676 43.0668 15.001 42.6668 15.001H24.6668C24.2666 15.0009 24 15.2675 24 15.6675V53.6675H20.6666C20.2666 53.6675 20 53.9342 20 54.3342C20 54.7342 20.2666 55.0009 20.6666 55.0009H24.6666H26.6666H42.6666H55.8H59.3334C59.7334 55.0009 60 54.7343 60 54.3343C60 53.9343 59.7334 53.6675 59.3334 53.6675ZM52.6666 48.3813C52.4491 48.3509 52.2267 48.3342 52 48.3342C51.4967 48.3342 51.003 48.4199 50.5366 48.5801C50.4205 48.4253 50.2332 48.3342 50 48.3342C49.6 48.3342 49.3334 48.6008 49.3334 49.0008V49.2051C49.0807 49.3871 48.8458 49.5948 48.6326 49.8257C48.5989 49.8613 48.5658 49.8974 48.5334 49.9341C47.9809 49.2436 47.2694 48.744 46.4648 48.5008C46.3493 48.3948 46.19 48.3341 46 48.3341C45.9257 48.3341 45.856 48.3434 45.7917 48.361C45.6412 48.3434 45.4883 48.3341 45.3334 48.3341C44.9155 48.3341 44.4451 48.3883 44.0639 48.5431C44.0167 48.559 43.9698 48.5754 43.9234 48.593C43.4627 48.2185 42.9239 47.9489 42.3561 47.8005C42.3501 47.7989 42.3439 47.7977 42.338 47.7961C42.2884 47.7833 42.2387 47.7712 42.1888 47.7604C42.1484 47.7514 42.1074 47.7437 42.0666 47.7361C42.0488 47.7328 42.0311 47.7293 42.0133 47.7262C41.9704 47.7188 41.9273 47.7122 41.884 47.7062C41.8646 47.7035 41.8452 47.7011 41.8258 47.6986C41.786 47.6937 41.7461 47.6891 41.7059 47.6854C41.6766 47.6827 41.6473 47.6807 41.6179 47.6786C41.5865 47.6764 41.5552 47.6738 41.5235 47.6723C41.4602 47.6693 41.3968 47.6674 41.3334 47.6674C41.2843 47.6674 41.2356 47.6684 41.1872 47.6702C41.1555 47.6713 41.1238 47.6732 41.0922 47.675C41.0795 47.6758 41.0667 47.6764 41.0541 47.6772C40.4467 47.7175 39.85 47.8889 39.3333 48.1925V27.0009H42.6666H52.6666V48.3813V48.3813ZM25.3334 16.3343H42V25.6676H38.6666C38.2666 25.6676 38 25.9343 38 26.3343V47.0676C37.6593 46.7269 37.2666 46.4387 36.839 46.2132C36.8013 46.193 36.7631 46.1735 36.7248 46.1544C36.7098 46.147 36.6948 46.1393 36.6797 46.132C36.2039 45.9012 35.6862 45.7498 35.1452 45.6932C35.1376 45.6924 35.1299 45.6918 35.1223 45.691C35.0595 45.6847 34.9963 45.6798 34.9329 45.6761C34.9161 45.6751 34.8993 45.6741 34.8824 45.6732C34.8108 45.6699 34.7389 45.6676 34.6666 45.6676C33.6745 45.6676 32.7552 45.9939 32 46.5424V46.3343C32 45.9343 31.7334 45.6677 31.3334 45.6677C30.9334 45.6677 30.6667 45.9343 30.6667 46.3343V47.6677C30.6667 47.7677 30.6834 47.8593 30.7146 47.9406C30.3873 48.48 30.1617 49.0882 30.0667 49.7344C29.2992 49.8221 28.5974 50.0983 28.0001 50.5112V50.3344C28.0001 49.9344 27.7334 49.6678 27.3334 49.6678C26.9334 49.6678 26.6668 49.9344 26.6668 50.3344V51.6678C26.6668 51.7456 26.6772 51.8182 26.6964 51.8849C26.3659 52.4195 26.1409 53.0244 26.0483 53.6677H25.3335V16.3343H25.3334ZM30.3633 51.0147C30.3765 51.0136 30.3898 51.0128 30.4031 51.0118C30.4383 51.009 30.4734 51.0064 30.5089 51.0047C30.5612 51.0024 30.6137 51.0008 30.6667 51.0008C31.0667 51.0008 31.3334 50.7342 31.3334 50.3342C31.3334 48.4675 32.8 47.0008 34.6667 47.0008C36.3334 47.0008 37.7334 48.2008 37.9334 49.8675C37.9784 50.0478 38.0855 50.1964 38.2319 50.2951C38.2411 50.3016 38.2505 50.3077 38.2602 50.3137C38.2705 50.32 38.2807 50.3264 38.2914 50.3322C38.316 50.3458 38.3416 50.3582 38.3684 50.3689C38.3694 50.3693 38.3703 50.3697 38.3713 50.3702C38.4019 50.3824 38.4338 50.3926 38.4666 50.4008C38.4667 50.4008 38.4667 50.4008 38.4668 50.4009C38.5065 50.4141 38.5516 50.4192 38.5992 50.4177C38.8184 50.4209 39.0222 50.3011 39.1334 50.1344C39.1334 50.1343 39.1334 50.1343 39.1335 50.1343L39.2002 50.0676C39.7335 49.401 40.4668 49.001 41.3335 49.001C41.7837 49.001 42.2336 49.1271 42.6374 49.3629C41.8422 50.1106 41.3912 51.0854 41.3388 52.1283C41.3353 52.1965 41.3335 52.2653 41.3335 52.3343C41.3335 52.7979 41.4106 53.2422 41.5632 53.6677H27.4C27.712 52.2323 28.9003 51.1476 30.3633 51.0147ZM43.137 53.6675C42.8823 53.2368 42.7334 52.7275 42.7334 52.2675C42.7334 51.5304 43.024 50.8662 43.5235 50.3807C43.619 50.2922 43.7208 50.2105 43.8283 50.1365C43.9324 50.1373 44.0372 50.1156 44.1334 50.0675C45.6 49.2675 47.3334 50.0009 47.8667 51.4675C47.9334 51.6675 48.1334 51.8675 48.4667 51.8675C48.53 51.8675 48.6 51.8474 48.6703 51.8116C48.8376 51.7842 48.9698 51.6614 49.0667 51.4675C49.3251 50.9186 49.7251 50.4803 50.212 50.173C50.317 50.1437 50.4073 50.0918 50.4791 50.0214C50.937 49.7913 51.456 49.6675 52.0001 49.6675C53.8667 49.6675 55.3334 51.1342 55.3334 53.0009C55.3334 53.2009 55.3334 53.4675 55.2668 53.6675H43.137V53.6675Z" fill="#3B6ABB"/>
<path d="M42 32.3334C41.6 32.3334 41.3334 32.6 41.3334 33V34.3334C41.3334 34.7334 41.6 35 42 35C42.4 35 42.6667 34.7334 42.6667 34.3334V33C42.6667 32.6 42.4 32.3334 42 32.3334Z" fill="#3B6ABB"/>
<path d="M42 44.3334C41.6 44.3334 41.3334 44.6 41.3334 45V46.3334C41.3334 46.7334 41.6 47 42 47C42.4 47 42.6667 46.7334 42.6667 46.3334V45C42.6667 44.6 42.4 44.3334 42 44.3334Z" fill="#3B6ABB"/>
<path d="M42 36.3334C41.6 36.3334 41.3334 36.6 41.3334 37V38.3334C41.3334 38.7334 41.6 39 42 39C42.4 39 42.6667 38.7334 42.6667 38.3334V37C42.6667 36.6 42.4 36.3334 42 36.3334Z" fill="#3B6ABB"/>
<path d="M42 40.3334C41.6 40.3334 41.3334 40.6 41.3334 41V42.3334C41.3334 42.7334 41.6 43 42 43C42.4 43 42.6667 42.7334 42.6667 42.3334V41C42.6667 40.6 42.4 40.3334 42 40.3334Z" fill="#3B6ABB"/>
<path d="M42 28.3334C41.6 28.3334 41.3334 28.6 41.3334 29V30.3334C41.3334 30.7334 41.6 31 42 31C42.4 31 42.6667 30.7334 42.6667 30.3334V29C42.6667 28.6 42.4 28.3334 42 28.3334Z" fill="#3B6ABB"/>
<path d="M46 35C46.4 35 46.6667 34.7334 46.6667 34.3334V33C46.6667 32.6 46.4 32.3334 46 32.3334C45.6 32.3334 45.3334 32.6 45.3334 33V34.3334C45.3334 34.7334 45.6 35 46 35Z" fill="#3B6ABB"/>
<path d="M46 31C46.4 31 46.6667 30.7334 46.6667 30.3334V29C46.6667 28.6 46.4 28.3334 46 28.3334C45.6 28.3334 45.3334 28.6 45.3334 29V30.3334C45.3334 30.7334 45.6 31 46 31Z" fill="#3B6ABB"/>
<path d="M46 39C46.4 39 46.6667 38.7334 46.6667 38.3334V37C46.6667 36.6 46.4 36.3334 46 36.3334C45.6 36.3334 45.3334 36.6 45.3334 37V38.3334C45.3334 38.7334 45.6 39 46 39Z" fill="#3B6ABB"/>
<path d="M46 43C46.4 43 46.6667 42.7334 46.6667 42.3334V41C46.6667 40.6 46.4 40.3334 46 40.3334C45.6 40.3334 45.3334 40.6 45.3334 41V42.3334C45.3334 42.7334 45.6 43 46 43Z" fill="#3B6ABB"/>
<path d="M46 47C46.4 47 46.6667 46.7334 46.6667 46.3334V45C46.6667 44.6 46.4 44.3334 46 44.3334C45.6 44.3334 45.3334 44.6 45.3334 45V46.3334C45.3334 46.7334 45.6 47 46 47Z" fill="#3B6ABB"/>
<path d="M50 39C50.4 39 50.6667 38.7334 50.6667 38.3334V37C50.6667 36.6 50.4 36.3334 50 36.3334C49.6 36.3334 49.3334 36.6 49.3334 37V38.3334C49.3334 38.7334 49.6 39 50 39Z" fill="#3B6ABB"/>
<path d="M50 35C50.4 35 50.6667 34.7334 50.6667 34.3334V33C50.6667 32.6 50.4 32.3334 50 32.3334C49.6 32.3334 49.3334 32.6 49.3334 33V34.3334C49.3334 34.7334 49.6 35 50 35Z" fill="#3B6ABB"/>
<path d="M50 47C50.4 47 50.6667 46.7334 50.6667 46.3334V45C50.6667 44.6 50.4 44.3334 50 44.3334C49.6 44.3334 49.3334 44.6 49.3334 45V46.3334C49.3334 46.7334 49.6 47 50 47Z" fill="#3B6ABB"/>
<path d="M50 43C50.4 43 50.6667 42.7334 50.6667 42.3334V41C50.6667 40.6 50.4 40.3334 50 40.3334C49.6 40.3334 49.3334 40.6 49.3334 41V42.3334C49.3334 42.7334 49.6 43 50 43Z" fill="#3B6ABB"/>
<path d="M50 31C50.4 31 50.6667 30.7334 50.6667 30.3334V29C50.6667 28.6 50.4 28.3334 50 28.3334C49.6 28.3334 49.3334 28.6 49.3334 29V30.3334C49.3334 30.7334 49.6 31 50 31Z" fill="#3B6ABB"/>
<path d="M27.3334 40.3334C27.7334 40.3334 28 40.0667 28 39.6667V38.3334C28 37.9334 27.7334 37.6667 27.3334 37.6667C26.9334 37.6667 26.6667 37.9334 26.6667 38.3334V39.6667C26.6667 40.0667 26.9334 40.3334 27.3334 40.3334Z" fill="#3B6ABB"/>
<path d="M27.3334 44.3334C27.7334 44.3334 28 44.0667 28 43.6667V42.3334C28 41.9334 27.7334 41.6667 27.3334 41.6667C26.9334 41.6667 26.6667 41.9334 26.6667 42.3334V43.6667C26.6667 44.0667 26.9334 44.3334 27.3334 44.3334Z" fill="#3B6ABB"/>
<path d="M27.3334 48.3334C27.7334 48.3334 28 48.0667 28 47.6667V46.3334C28 45.9334 27.7334 45.6667 27.3334 45.6667C26.9334 45.6667 26.6667 45.9334 26.6667 46.3334V47.6667C26.6667 48.0667 26.9334 48.3334 27.3334 48.3334Z" fill="#3B6ABB"/>
<path d="M27.3334 20.3333C27.7334 20.3333 28 20.0666 28 19.6666V18.3333C28 17.9333 27.7334 17.6666 27.3334 17.6666C26.9334 17.6666 26.6667 17.9333 26.6667 18.3333V19.6666C26.6667 20.0666 26.9334 20.3333 27.3334 20.3333Z" fill="#3B6ABB"/>
<path d="M27.3334 24.3334C27.7334 24.3334 28 24.0667 28 23.6667V22.3334C28 21.9334 27.7334 21.6667 27.3334 21.6667C26.9334 21.6667 26.6667 21.9334 26.6667 22.3334V23.6667C26.6667 24.0667 26.9334 24.3334 27.3334 24.3334Z" fill="#3B6ABB"/>
<path d="M27.3334 28.3334C27.7334 28.3334 28 28.0667 28 27.6667V26.3334C28 25.9334 27.7334 25.6667 27.3334 25.6667C26.9334 25.6667 26.6667 25.9334 26.6667 26.3334V27.6667C26.6667 28.0667 26.9334 28.3334 27.3334 28.3334Z" fill="#3B6ABB"/>
<path d="M27.3334 32.3334C27.7334 32.3334 28 32.0667 28 31.6667V30.3334C28 29.9334 27.7334 29.6667 27.3334 29.6667C26.9334 29.6667 26.6667 29.9334 26.6667 30.3334V31.6667C26.6667 32.0667 26.9334 32.3334 27.3334 32.3334Z" fill="#3B6ABB"/>
<path d="M27.3334 36.3334C27.7334 36.3334 28 36.0667 28 35.6667V34.3334C28 33.9334 27.7334 33.6667 27.3334 33.6667C26.9334 33.6667 26.6667 33.9334 26.6667 34.3334V35.6667C26.6667 36.0667 26.9334 36.3334 27.3334 36.3334Z" fill="#3B6ABB"/>
<path d="M31.3334 24.3334C31.7334 24.3334 32 24.0667 32 23.6667V22.3334C32 21.9334 31.7334 21.6667 31.3334 21.6667C30.9334 21.6667 30.6667 21.9334 30.6667 22.3334V23.6667C30.6667 24.0667 30.9334 24.3334 31.3334 24.3334Z" fill="#3B6ABB"/>
<path d="M31.3334 20.3333C31.7334 20.3333 32 20.0666 32 19.6666V18.3333C32 17.9333 31.7334 17.6666 31.3334 17.6666C30.9334 17.6666 30.6667 17.9333 30.6667 18.3333V19.6666C30.6667 20.0666 30.9334 20.3333 31.3334 20.3333Z" fill="#3B6ABB"/>
<path d="M31.3334 32.3334C31.7334 32.3334 32 32.0667 32 31.6667V30.3334C32 29.9334 31.7334 29.6667 31.3334 29.6667C30.9334 29.6667 30.6667 29.9334 30.6667 30.3334V31.6667C30.6667 32.0667 30.9334 32.3334 31.3334 32.3334Z" fill="#3B6ABB"/>
<path d="M31.3334 28.3334C31.7334 28.3334 32 28.0667 32 27.6667V26.3334C32 25.9334 31.7334 25.6667 31.3334 25.6667C30.9334 25.6667 30.6667 25.9334 30.6667 26.3334V27.6667C30.6667 28.0667 30.9334 28.3334 31.3334 28.3334Z" fill="#3B6ABB"/>
<path d="M31.3334 36.3334C31.7334 36.3334 32 36.0667 32 35.6667V34.3334C32 33.9334 31.7334 33.6667 31.3334 33.6667C30.9334 33.6667 30.6667 33.9334 30.6667 34.3334V35.6667C30.6667 36.0667 30.9334 36.3334 31.3334 36.3334Z" fill="#3B6ABB"/>
<path d="M31.3334 40.3334C31.7334 40.3334 32 40.0667 32 39.6667V38.3334C32 37.9334 31.7334 37.6667 31.3334 37.6667C30.9334 37.6667 30.6667 37.9334 30.6667 38.3334V39.6667C30.6667 40.0667 30.9334 40.3334 31.3334 40.3334Z" fill="#3B6ABB"/>
<path d="M31.3334 44.3334C31.7334 44.3334 32 44.0667 32 43.6667V42.3334C32 41.9334 31.7334 41.6667 31.3334 41.6667C30.9334 41.6667 30.6667 41.9334 30.6667 42.3334V43.6667C30.6667 44.0667 30.9334 44.3334 31.3334 44.3334Z" fill="#3B6ABB"/>
<path d="M35.3334 28.3334C35.7334 28.3334 36 28.0667 36 27.6667V26.3334C36 25.9334 35.7334 25.6667 35.3334 25.6667C34.9334 25.6667 34.6667 25.9334 34.6667 26.3334V27.6667C34.6667 28.0667 34.9334 28.3334 35.3334 28.3334Z" fill="#3B6ABB"/>
<path d="M35.3334 24.3334C35.7334 24.3334 36 24.0667 36 23.6667V22.3334C36 21.9334 35.7334 21.6667 35.3334 21.6667C34.9334 21.6667 34.6667 21.9334 34.6667 22.3334V23.6667C34.6667 24.0667 34.9334 24.3334 35.3334 24.3334Z" fill="#3B6ABB"/>
<path d="M35.3334 20.3333C35.7334 20.3333 36 20.0666 36 19.6666V18.3333C36 17.9333 35.7334 17.6666 35.3334 17.6666C34.9334 17.6666 34.6667 17.9333 34.6667 18.3333V19.6666C34.6667 20.0666 34.9334 20.3333 35.3334 20.3333Z" fill="#3B6ABB"/>
<path d="M35.3334 44.3334C35.7334 44.3334 36 44.0667 36 43.6667V42.3334C36 41.9334 35.7334 41.6667 35.3334 41.6667C34.9334 41.6667 34.6667 41.9334 34.6667 42.3334V43.6667C34.6667 44.0667 34.9334 44.3334 35.3334 44.3334Z" fill="#3B6ABB"/>
<path d="M35.3334 40.3334C35.7334 40.3334 36 40.0667 36 39.6667V38.3334C36 37.9334 35.7334 37.6667 35.3334 37.6667C34.9334 37.6667 34.6667 37.9334 34.6667 38.3334V39.6667C34.6667 40.0667 34.9334 40.3334 35.3334 40.3334Z" fill="#3B6ABB"/>
<path d="M35.3334 36.3334C35.7334 36.3334 36 36.0667 36 35.6667V34.3334C36 33.9334 35.7334 33.6667 35.3334 33.6667C34.9334 33.6667 34.6667 33.9334 34.6667 34.3334V35.6667C34.6667 36.0667 34.9334 36.3334 35.3334 36.3334Z" fill="#3B6ABB"/>
<path d="M35.3334 32.3334C35.7334 32.3334 36 32.0667 36 31.6667V30.3334C36 29.9334 35.7334 29.6667 35.3334 29.6667C34.9334 29.6667 34.6667 29.9334 34.6667 30.3334V31.6667C34.6667 32.0667 34.9334 32.3334 35.3334 32.3334Z" fill="#3B6ABB"/>
<path d="M39.3334 24.3334C39.7334 24.3334 40 24.0667 40 23.6667V22.3334C40 21.9334 39.7334 21.6667 39.3334 21.6667C38.9334 21.6667 38.6667 21.9334 38.6667 22.3334V23.6667C38.6667 24.0667 38.9334 24.3334 39.3334 24.3334Z" fill="#3B6ABB"/>
<path d="M39.3334 20.3333C39.7334 20.3333 40 20.0666 40 19.6666V18.3333C40 17.9333 39.7334 17.6666 39.3334 17.6666C38.9334 17.6666 38.6667 17.9333 38.6667 18.3333V19.6666C38.6667 20.0666 38.9334 20.3333 39.3334 20.3333Z" fill="#3B6ABB"/>
</g>
<path d="M17.26 74V73.48L15.78 73.04V67.54H19.56L19.9 68.9H20.62V65.3H19.9L19.56 66.64H15.78V61.5H19.44C20.02 61.5 20.04 61.54 20.12 61.98L20.36 63.5H21.24V60.72L21.14 60.6H13.44V61.12L14.62 61.56V73.04L13.44 73.48V74H17.26ZM24.9448 60.76C24.9448 60.32 24.5848 59.96 24.1448 59.96C23.7048 59.96 23.3448 60.32 23.3448 60.76C23.3448 61.2 23.7048 61.56 24.1448 61.56C24.5848 61.56 24.9448 61.2 24.9448 60.76ZM22.5848 77.54C23.8448 76.46 24.6848 75.44 24.6848 72.44V63.78L24.5848 63.68H24.1448L22.5048 63.8V64.32L23.5848 64.76V72.42C23.5848 74.72 23.1648 75.8 22.3048 76.66L22.0848 76.88L22.5848 77.54ZM30.393 73.34C28.413 73.34 27.593 71.16 27.593 68.92C27.593 66.44 28.573 64.46 30.393 64.46C32.213 64.46 33.193 66.44 33.193 68.92C33.193 71.16 32.393 73.34 30.393 73.34ZM30.393 74.24C32.713 74.24 34.353 72.32 34.353 68.86C34.353 65.42 32.733 63.56 30.393 63.56C28.053 63.56 26.433 65.44 26.433 68.88C26.433 72.34 28.073 74.24 30.393 74.24ZM32.553 60.66C32.553 60.22 32.193 59.86 31.753 59.86C31.313 59.86 30.953 60.22 30.953 60.66C30.953 61.1 31.313 61.46 31.753 61.46C32.193 61.46 32.553 61.1 32.553 60.66ZM29.813 60.66C29.813 60.22 29.453 59.86 29.013 59.86C28.573 59.86 28.213 60.22 28.213 60.66C28.213 61.1 28.573 61.46 29.013 61.46C29.453 61.46 29.813 61.1 29.813 60.66ZM38.3802 74V73.48L37.3002 73.04V60.46L37.2002 60.36H36.7402L35.0602 60.6V61.18L36.1602 61.48V73.04L35.0802 73.48V74H38.3802ZM41.4013 65.48C41.8813 65.06 42.7213 64.5 43.7413 64.5C45.3413 64.5 46.5213 65.72 46.5213 68.62C46.5213 72.1 44.7813 73.34 43.1013 73.34C42.5813 73.34 41.7013 73.14 41.4013 73V65.48ZM40.8013 74.08C40.9413 73.98 41.0413 73.92 41.1813 73.92C41.4413 73.92 42.0213 74.24 43.0613 74.24C45.1813 74.24 47.6413 72.8 47.6413 68.62C47.6413 65.26 46.1413 63.56 43.9613 63.56C42.8413 63.56 41.9413 64.08 41.4013 64.54V60.46L41.3013 60.36H40.8413L39.1613 60.6V61.18L40.2613 61.48V74.08H40.8013ZM51.6675 74.42C51.0475 76.3 50.2075 76.48 49.5275 76.48C49.0475 76.48 48.5875 76.38 48.1875 76.24L47.9675 77.26C48.4675 77.46 49.0275 77.54 49.4475 77.54C51.0075 77.54 51.9475 77 52.8275 74.28L55.9275 64.76L56.9875 64.32V63.8H53.6875V64.32L54.7475 64.76L52.4275 72.12L49.9875 64.76L51.0275 64.32V63.8H47.7275V64.32L48.8475 64.76L51.8675 73.82L51.6675 74.42ZM54.4075 60.84L53.8875 59.92L50.8475 61.98L51.3075 62.7L54.4075 60.84ZM60.138 74V73.48L59.058 73.04V60.46L58.958 60.36H58.498L56.818 60.6V61.18L57.918 61.48V73.04L56.838 73.48V74H60.138ZM63.4191 60.76C63.4191 60.32 63.0591 59.96 62.6191 59.96C62.1791 59.96 61.8191 60.32 61.8191 60.76C61.8191 61.2 62.1791 61.56 62.6191 61.56C63.0591 61.56 63.3991 61.2 63.4191 60.76ZM64.2591 74V73.48L63.1591 73.04V63.78L63.0591 63.68H62.6191L60.9791 63.8V64.32L62.0591 64.76V73.04L60.9791 73.48V74H64.2591Z" fill="#3B6ABB"/>
<defs>
<clipPath id="clip0">
<rect width="40" height="40" fill="white" transform="translate(20 15)"/>
</clipPath>
</defs>
</svg>
