<svg width="80" height="80" viewBox="0 0 80 80" fill="none" xmlns="http://www.w3.org/2000/svg">
<rect x="0.5" y="0.5" width="79" height="79" rx="1.5" fill="white" stroke="#3B6ABB"/>
<g clip-path="url(#clip0)">
<path d="M39.3334 29.6671H40.6667V40.3336H39.3334V29.6671Z" fill="#3B6ABB"/>
<path d="M31.3335 39.0002H32.6668V41.0002H31.3335V39.0002Z" fill="#3B6ABB"/>
<path d="M47.3333 39.0002H48.6666V40.3336H47.3333V39.0002Z" fill="#3B6ABB"/>
<path d="M20.667 38.3345H23.3336V54.3342C23.3336 54.7024 23.6321 55.0009 24.0002 55.0009H55.9997C56.3678 55.0009 56.6663 54.7024 56.6663 54.3342V38.3345H59.333C59.5315 38.3345 59.7197 38.2459 59.8463 38.0929C59.9729 37.9396 60.0247 37.7381 59.9876 37.5432L57.321 23.5434C57.2812 23.3357 57.1455 23.159 56.9551 23.0675L40.2887 15.0676C40.0999 14.9755 39.8785 14.9791 39.6927 15.0771L23.0263 23.7436C22.8469 23.8367 22.7197 24.006 22.6803 24.2042L20.0137 37.5373C19.9746 37.7329 20.0251 37.936 20.1517 38.0903C20.2783 38.245 20.4674 38.3345 20.667 38.3345V38.3345ZM40.6666 47.5111L44.1845 53.6675H40.6666V47.5111ZM39.3333 53.6675H35.8155L39.3333 47.5111V53.6675ZM44.6666 51.8242L41.1487 45.6677H44.6666V51.8242ZM45.3332 44.3344H32.6668V43.0011H47.3332V44.3344H45.3332ZM38.8512 45.6677L35.3334 51.8242V45.6677H38.8512ZM52.6664 53.6675V39.0011H51.3331V53.6675H48.6665V47.001H47.3332V53.6675H45.9999V45.6677H47.9998C48.368 45.6677 48.6665 45.3692 48.6665 45.001V42.3344C48.6665 41.9663 48.368 41.6678 47.9998 41.6678H32.0001C31.6319 41.6678 31.3334 41.9663 31.3334 42.3344V45.001C31.3334 45.3692 31.6319 45.6677 32.0001 45.6677H34.0001V53.6675H32.6668V47.001H31.3334V53.6675H28.6668V39.0011H27.3335V53.6675H24.6669V37.7264L26.6001 26.7735L27.3335 26.3887V29.668H28.6668V25.6908L31.3334 24.2908V29.668H32.6668V23.5955L35.3334 22.1954V40.3344H36.6667V21.5001L39.3333 20.1033V23.0014H40.6666V20.1033L43.3332 21.5001V40.3344H44.6666V22.2016L47.3332 23.6013V29.668H48.6665V24.2934L51.3331 25.6934V29.668H52.6664V26.3887L53.3998 26.7735L55.333 37.7264V53.6675H52.6664ZM23.9247 24.7787L40.012 16.4136L56.0742 24.1235L58.5276 37.0012H56.5589L54.6563 26.2188C54.6205 26.0154 54.4922 25.8399 54.309 25.7442L40.3092 18.411C40.1155 18.3094 39.8844 18.3094 39.6907 18.411L25.691 25.7442C25.5077 25.8399 25.3795 26.0154 25.3436 26.2188L23.441 37.0012H21.4801L23.9247 24.7787Z" fill="#3B6ABB"/>
<path d="M51.9998 31.0004H46.6665C46.2984 31.0004 45.9999 31.2989 45.9999 31.667V37.0003C45.9999 37.3684 46.2984 37.6669 46.6665 37.6669H51.9998C52.3679 37.6669 52.6664 37.3684 52.6664 37.0003V31.667C52.6664 31.2989 52.3679 31.0004 51.9998 31.0004ZM51.3331 33.667H49.9998V32.3337H51.3331V33.667ZM48.6665 32.3337V33.667H47.3332V32.3337H48.6665ZM47.3332 35.0003H48.6665V36.3336H47.3332V35.0003ZM49.9998 36.3336V35.0003H51.3331V36.3336H49.9998Z" fill="#3B6ABB"/>
<path d="M33.3334 31.0004H28.0002C27.632 31.0004 27.3335 31.2989 27.3335 31.667V37.0003C27.3335 37.3684 27.632 37.6669 28.0002 37.6669H33.3334C33.7016 37.6669 34.0001 37.3684 34.0001 37.0003V31.667C34.0001 31.2989 33.7016 31.0004 33.3334 31.0004ZM32.6667 33.667H31.3334V32.3337H32.6667V33.667ZM30.0001 32.3337V33.667H28.6668V32.3337H30.0001ZM28.6668 35.0003H30.0001V36.3336H28.6668V35.0003ZM31.3334 36.3336V35.0003H32.6667V36.3336H31.3334Z" fill="#3B6ABB"/>
<path d="M41.3333 24.3339H38.6667C38.2985 24.3339 38 24.6324 38 25.0005V27.6672C38 28.0354 38.2985 28.3339 38.6667 28.3339H41.3333C41.7015 28.3339 42 28.0354 42 27.6672V25.0005C42 24.6324 41.7015 24.3339 41.3333 24.3339ZM40.6667 27.0005H39.3333V25.6672H40.6667V27.0005Z" fill="#3B6ABB"/>
</g>
<path d="M22.14 74V73.48L20.98 73.04V61.56L22.14 61.12V60.6H18.64V61.12L19.82 61.56V66.64H13.78V61.56L14.94 61.12V60.6H11.44V61.12L12.62 61.56V73.04L11.44 73.48V74H14.94V73.48L13.78 73.04V67.54H19.82V73.04L18.64 73.48V74H22.14ZM29.6514 72.76H28.8314C28.3514 73.16 27.6714 73.34 27.0714 73.34C24.9514 73.34 23.9514 71.78 23.9514 68.92H29.8314C29.8314 65.02 28.6714 63.56 26.6114 63.56C24.4314 63.56 22.8314 65.22 22.8314 68.96C22.8314 72.52 24.2514 74.24 26.8514 74.24C28.0714 74.24 29.0914 73.9 29.6514 73.64V72.76ZM23.9914 68.08C24.1914 65.62 25.2314 64.46 26.5714 64.46C27.7714 64.46 28.6714 65.54 28.6914 68.08H23.9914ZM30.9555 73.66C31.8155 74.02 32.7355 74.24 33.5355 74.24C35.1755 74.24 36.6155 73.28 36.6155 71.48C36.6155 68.3 32.0555 68.62 32.0555 66.1C32.0555 65 32.9155 64.46 33.8555 64.46C34.2755 64.46 34.7355 64.56 35.1155 64.7L35.3755 66.26H36.2555V64.14C35.4555 63.8 34.6955 63.56 33.8955 63.56C32.2955 63.56 30.9555 64.5 30.9555 66.2C30.9555 69.36 35.5155 69.1 35.5155 71.64C35.5155 72.76 34.6355 73.34 33.5755 73.34C33.0955 73.34 32.5555 73.22 32.1155 73.06L31.8555 71.32H30.9555V73.66ZM42.7752 73.04C42.5152 73.16 41.6952 73.28 41.1952 73.28C40.3552 73.28 39.8752 72.78 39.8752 71.74V64.7H42.4352L42.5952 63.8H39.8752V61.74H39.2152C38.7952 63.06 38.3952 63.54 37.3152 63.88V64.56L38.7752 64.7V71.84C38.7752 73.78 39.8152 74.16 41.0352 74.16C41.7352 74.16 42.3952 74.06 42.7752 73.86V73.04ZM51.9373 74V73.48L50.8373 73.04V66.48C50.8373 64.28 49.8573 63.56 48.4373 63.56C47.1573 63.56 45.9373 64.52 45.4173 65V60.46L45.3173 60.36H44.8573L43.1773 60.6V61.18L44.2773 61.48V73.04L43.1973 73.48V74H46.4973V73.48L45.4173 73.04V65.94C45.8973 65.48 47.1373 64.46 48.1573 64.46C49.2573 64.46 49.7373 65.14 49.7373 66.44V73.04L48.6573 73.48V74H51.9373ZM61.0561 74V73.44L59.7761 72.94V63.78L59.6761 63.68H59.2361L57.5961 63.8V64.32L58.6761 64.76V71.9C58.1161 72.42 56.8761 73.3 55.8161 73.3C54.8561 73.3 54.4361 72.58 54.4361 71.34V63.78L54.3361 63.68H53.8961L52.2561 63.8V64.32L53.3361 64.76V71.32C53.3361 73.52 54.3161 74.24 55.7361 74.24C57.0561 74.24 58.0561 73.3 58.7161 72.86V73.88L58.8161 74H61.0561ZM58.3161 60.84L57.7961 59.92L54.7561 61.98L55.2161 62.7L58.3161 60.84ZM61.5219 73.66C62.3819 74.02 63.3019 74.24 64.1019 74.24C65.7419 74.24 67.1819 73.28 67.1819 71.48C67.1819 68.3 62.6219 68.62 62.6219 66.1C62.6219 65 63.4819 64.46 64.4219 64.46C64.8419 64.46 65.3019 64.56 65.6819 64.7L65.9419 66.26H66.8219V64.14C66.0219 63.8 65.2619 63.56 64.4619 63.56C62.8619 63.56 61.5219 64.5 61.5219 66.2C61.5219 69.36 66.0819 69.1 66.0819 71.64C66.0819 72.76 65.2019 73.34 64.1419 73.34C63.6619 73.34 63.1219 73.22 62.6819 73.06L62.4219 71.32H61.5219V73.66Z" fill="#3B6ABB"/>
<defs>
<clipPath id="clip0">
<rect width="40" height="40" fill="white" transform="translate(20 15)"/>
</clipPath>
</defs>
</svg>
